<svg width="615" height="477" viewBox="0 0 615 477" fill="none" xmlns="http://www.w3.org/2000/svg">
<path d="M158.56 56V53.68L158.5 53.3V49.42C158.5 48.5267 158.247 47.84 157.74 47.36C157.247 46.88 156.507 46.64 155.52 46.64C154.84 46.64 154.193 46.7533 153.58 46.98C152.967 47.2067 152.447 47.5067 152.02 47.88L151.38 46.82C151.913 46.3667 152.553 46.02 153.3 45.78C154.047 45.5267 154.833 45.4 155.66 45.4C157.02 45.4 158.067 45.74 158.8 46.42C159.547 47.0867 159.92 48.1067 159.92 49.48V56H158.56ZM154.94 56.1C154.153 56.1 153.467 55.9733 152.88 55.72C152.307 55.4533 151.867 55.0933 151.56 54.64C151.253 54.1733 151.1 53.64 151.1 53.04C151.1 52.4933 151.227 52 151.48 51.56C151.747 51.1067 152.173 50.7467 152.76 50.48C153.36 50.2 154.16 50.06 155.16 50.06H158.78V51.12H155.2C154.187 51.12 153.48 51.3 153.08 51.66C152.693 52.02 152.5 52.4667 152.5 53C152.5 53.6 152.733 54.08 153.2 54.44C153.667 54.8 154.32 54.98 155.16 54.98C155.96 54.98 156.647 54.8 157.22 54.44C157.807 54.0667 158.233 53.5333 158.5 52.84L158.82 53.82C158.553 54.5133 158.087 55.0667 157.42 55.48C156.767 55.8933 155.94 56.1 154.94 56.1ZM164.017 56V44.18C164.017 43.2467 164.29 42.4933 164.837 41.92C165.384 41.3467 166.17 41.06 167.197 41.06C167.597 41.06 167.984 41.1133 168.357 41.22C168.73 41.3267 169.044 41.4933 169.297 41.72L168.817 42.78C168.617 42.6067 168.384 42.48 168.117 42.4C167.85 42.3067 167.564 42.26 167.257 42.26C166.657 42.26 166.197 42.4267 165.877 42.76C165.557 43.0933 165.397 43.5867 165.397 44.24V45.84L165.437 46.5V56H164.017ZM162.137 46.68V45.5H168.637V46.68H162.137ZM170.554 56V45.5H171.914V48.36L171.774 47.86C172.068 47.06 172.561 46.4533 173.254 46.04C173.948 45.6133 174.808 45.4 175.834 45.4V46.78C175.781 46.78 175.728 46.78 175.674 46.78C175.621 46.7667 175.568 46.76 175.514 46.76C174.408 46.76 173.541 47.1 172.914 47.78C172.288 48.4467 171.974 49.4 171.974 50.64V56H170.554ZM184.224 56V53.68L184.164 53.3V49.42C184.164 48.5267 183.911 47.84 183.404 47.36C182.911 46.88 182.171 46.64 181.184 46.64C180.504 46.64 179.857 46.7533 179.244 46.98C178.631 47.2067 178.111 47.5067 177.684 47.88L177.044 46.82C177.577 46.3667 178.217 46.02 178.964 45.78C179.711 45.5267 180.497 45.4 181.324 45.4C182.684 45.4 183.731 45.74 184.464 46.42C185.211 47.0867 185.584 48.1067 185.584 49.48V56H184.224ZM180.604 56.1C179.817 56.1 179.131 55.9733 178.544 55.72C177.971 55.4533 177.531 55.0933 177.224 54.64C176.917 54.1733 176.764 53.64 176.764 53.04C176.764 52.4933 176.891 52 177.144 51.56C177.411 51.1067 177.837 50.7467 178.424 50.48C179.024 50.2 179.824 50.06 180.824 50.06H184.444V51.12H180.864C179.851 51.12 179.144 51.3 178.744 51.66C178.357 52.02 178.164 52.4667 178.164 53C178.164 53.6 178.397 54.08 178.864 54.44C179.331 54.8 179.984 54.98 180.824 54.98C181.624 54.98 182.311 54.8 182.884 54.44C183.471 54.0667 183.897 53.5333 184.164 52.84L184.484 53.82C184.217 54.5133 183.751 55.0667 183.084 55.48C182.431 55.8933 181.604 56.1 180.604 56.1ZM189.441 56V45.5H190.861V56H189.441ZM190.161 43.18C189.868 43.18 189.621 43.08 189.421 42.88C189.221 42.68 189.121 42.44 189.121 42.16C189.121 41.88 189.221 41.6467 189.421 41.46C189.621 41.26 189.868 41.16 190.161 41.16C190.454 41.16 190.701 41.2533 190.901 41.44C191.101 41.6267 191.201 41.86 191.201 42.14C191.201 42.4333 191.101 42.68 190.901 42.88C190.714 43.08 190.468 43.18 190.161 43.18ZM198.992 56.1C197.992 56.1 197.092 55.8733 196.292 55.42C195.505 54.9667 194.885 54.34 194.432 53.54C193.979 52.7267 193.752 51.7933 193.752 50.74C193.752 49.6733 193.979 48.74 194.432 47.94C194.885 47.14 195.505 46.52 196.292 46.08C197.092 45.6267 197.992 45.4 198.992 45.4C199.912 45.4 200.732 45.6067 201.452 46.02C202.185 46.4333 202.765 47.04 203.192 47.84C203.632 48.6267 203.852 49.5933 203.852 50.74C203.852 51.8733 203.639 52.84 203.212 53.64C202.785 54.44 202.205 55.0533 201.472 55.48C200.752 55.8933 199.925 56.1 198.992 56.1ZM199.092 54.84C199.839 54.84 200.505 54.6733 201.092 54.34C201.692 53.9933 202.159 53.5133 202.492 52.9C202.839 52.2733 203.012 51.5533 203.012 50.74C203.012 49.9133 202.839 49.1933 202.492 48.58C202.159 47.9667 201.692 47.4933 201.092 47.16C200.505 46.8133 199.839 46.64 199.092 46.64C198.359 46.64 197.699 46.8133 197.112 47.16C196.525 47.4933 196.059 47.9667 195.712 48.58C195.365 49.1933 195.192 49.9133 195.192 50.74C195.192 51.5533 195.365 52.2733 195.712 52.9C196.059 53.5133 196.525 53.9933 197.112 54.34C197.699 54.6733 198.359 54.84 199.092 54.84ZM203.052 56V52.84L203.192 50.72L202.992 48.6V41.16H204.412V56H203.052Z" fill="#F2EEF4" fill-opacity="0.3"/>
<path d="M4.68 261L0.02 250.5H1.5L5.78 260.24H5.08L9.42 250.5H10.82L6.14 261H4.68ZM19.0873 261V258.68L19.0273 258.3V254.42C19.0273 253.527 18.774 252.84 18.2673 252.36C17.774 251.88 17.034 251.64 16.0473 251.64C15.3673 251.64 14.7207 251.753 14.1073 251.98C13.494 252.207 12.974 252.507 12.5473 252.88L11.9073 251.82C12.4407 251.367 13.0807 251.02 13.8273 250.78C14.574 250.527 15.3607 250.4 16.1873 250.4C17.5473 250.4 18.594 250.74 19.3273 251.42C20.074 252.087 20.4473 253.107 20.4473 254.48V261H19.0873ZM15.4673 261.1C14.6807 261.1 13.994 260.973 13.4073 260.72C12.834 260.453 12.394 260.093 12.0873 259.64C11.7807 259.173 11.6273 258.64 11.6273 258.04C11.6273 257.493 11.754 257 12.0073 256.56C12.274 256.107 12.7007 255.747 13.2873 255.48C13.8873 255.2 14.6873 255.06 15.6873 255.06H19.3073V256.12H15.7273C14.714 256.12 14.0073 256.3 13.6073 256.66C13.2207 257.02 13.0273 257.467 13.0273 258C13.0273 258.6 13.2607 259.08 13.7273 259.44C14.194 259.8 14.8473 259.98 15.6873 259.98C16.4873 259.98 17.174 259.8 17.7473 259.44C18.334 259.067 18.7607 258.533 19.0273 257.84L19.3473 258.82C19.0807 259.513 18.614 260.067 17.9473 260.48C17.294 260.893 16.4673 261.1 15.4673 261.1ZM24.3042 261V246.16H25.7242V261H24.3042ZM34.1353 261.1C33.042 261.1 32.082 260.873 31.2553 260.42C30.4286 259.953 29.782 259.32 29.3153 258.52C28.8486 257.707 28.6153 256.78 28.6153 255.74C28.6153 254.7 28.8353 253.78 29.2753 252.98C29.7286 252.18 30.342 251.553 31.1153 251.1C31.902 250.633 32.782 250.4 33.7553 250.4C34.742 250.4 35.6153 250.627 36.3753 251.08C37.1486 251.52 37.7553 252.147 38.1953 252.96C38.6353 253.76 38.8553 254.687 38.8553 255.74C38.8553 255.807 38.8486 255.88 38.8353 255.96C38.8353 256.027 38.8353 256.1 38.8353 256.18H29.6953V255.12H38.0753L37.5153 255.54C37.5153 254.78 37.3486 254.107 37.0153 253.52C36.6953 252.92 36.2553 252.453 35.6953 252.12C35.1353 251.787 34.4886 251.62 33.7553 251.62C33.0353 251.62 32.3886 251.787 31.8153 252.12C31.242 252.453 30.7953 252.92 30.4753 253.52C30.1553 254.12 29.9953 254.807 29.9953 255.58V255.8C29.9953 256.6 30.1686 257.307 30.5153 257.92C30.8753 258.52 31.3686 258.993 31.9953 259.34C32.6353 259.673 33.362 259.84 34.1753 259.84C34.8153 259.84 35.4086 259.727 35.9553 259.5C36.5153 259.273 36.9953 258.927 37.3953 258.46L38.1953 259.38C37.7286 259.94 37.142 260.367 36.4353 260.66C35.742 260.953 34.9753 261.1 34.1353 261.1ZM47.1056 250.4C47.959 250.4 48.7056 250.567 49.3456 250.9C49.999 251.22 50.5056 251.713 50.8656 252.38C51.239 253.047 51.4256 253.887 51.4256 254.9V261H50.0056V255.04C50.0056 253.933 49.7256 253.1 49.1656 252.54C48.619 251.967 47.8456 251.68 46.8456 251.68C46.099 251.68 45.4456 251.833 44.8856 252.14C44.339 252.433 43.9123 252.867 43.6056 253.44C43.3123 254 43.1656 254.68 43.1656 255.48V261H41.7456V250.5H43.1056V253.38L42.8856 252.84C43.219 252.08 43.7523 251.487 44.4856 251.06C45.219 250.62 46.0923 250.4 47.1056 250.4ZM59.6213 261.1C58.5813 261.1 57.6479 260.873 56.8213 260.42C56.0079 259.953 55.3679 259.32 54.9013 258.52C54.4346 257.707 54.2013 256.78 54.2013 255.74C54.2013 254.687 54.4346 253.76 54.9013 252.96C55.3679 252.16 56.0079 251.533 56.8213 251.08C57.6479 250.627 58.5813 250.4 59.6213 250.4C60.5146 250.4 61.3213 250.573 62.0413 250.92C62.7613 251.267 63.3279 251.787 63.7413 252.48L62.6813 253.2C62.3213 252.667 61.8746 252.273 61.3413 252.02C60.8079 251.767 60.2279 251.64 59.6013 251.64C58.8546 251.64 58.1813 251.813 57.5813 252.16C56.9813 252.493 56.5079 252.967 56.1613 253.58C55.8146 254.193 55.6413 254.913 55.6413 255.74C55.6413 256.567 55.8146 257.287 56.1613 257.9C56.5079 258.513 56.9813 258.993 57.5813 259.34C58.1813 259.673 58.8546 259.84 59.6013 259.84C60.2279 259.84 60.8079 259.713 61.3413 259.46C61.8746 259.207 62.3213 258.82 62.6813 258.3L63.7413 259.02C63.3279 259.7 62.7613 260.22 62.0413 260.58C61.3213 260.927 60.5146 261.1 59.6213 261.1ZM70.815 261.1C69.7217 261.1 68.7617 260.873 67.935 260.42C67.1083 259.953 66.4617 259.32 65.995 258.52C65.5283 257.707 65.295 256.78 65.295 255.74C65.295 254.7 65.515 253.78 65.955 252.98C66.4083 252.18 67.0217 251.553 67.795 251.1C68.5817 250.633 69.4617 250.4 70.435 250.4C71.4217 250.4 72.295 250.627 73.055 251.08C73.8283 251.52 74.435 252.147 74.875 252.96C75.315 253.76 75.535 254.687 75.535 255.74C75.535 255.807 75.5283 255.88 75.515 255.96C75.515 256.027 75.515 256.1 75.515 256.18H66.375V255.12H74.755L74.195 255.54C74.195 254.78 74.0283 254.107 73.695 253.52C73.375 252.92 72.935 252.453 72.375 252.12C71.815 251.787 71.1683 251.62 70.435 251.62C69.715 251.62 69.0683 251.787 68.495 252.12C67.9217 252.453 67.475 252.92 67.155 253.52C66.835 254.12 66.675 254.807 66.675 255.58V255.8C66.675 256.6 66.8483 257.307 67.195 257.92C67.555 258.52 68.0483 258.993 68.675 259.34C69.315 259.673 70.0417 259.84 70.855 259.84C71.495 259.84 72.0883 259.727 72.635 259.5C73.195 259.273 73.675 258.927 74.075 258.46L74.875 259.38C74.4083 259.94 73.8217 260.367 73.115 260.66C72.4217 260.953 71.655 261.1 70.815 261.1Z" fill="#F2EEF4" fill-opacity="0.8"/>
<path d="M273.56 19V16.68L273.5 16.3V12.42C273.5 11.5267 273.247 10.84 272.74 10.36C272.247 9.88 271.507 9.64 270.52 9.64C269.84 9.64 269.193 9.75333 268.58 9.98C267.967 10.2067 267.447 10.5067 267.02 10.88L266.38 9.82C266.913 9.36667 267.553 9.02 268.3 8.78C269.047 8.52667 269.833 8.4 270.66 8.4C272.02 8.4 273.067 8.74 273.8 9.42C274.547 10.0867 274.92 11.1067 274.92 12.48V19H273.56ZM269.94 19.1C269.153 19.1 268.467 18.9733 267.88 18.72C267.307 18.4533 266.867 18.0933 266.56 17.64C266.253 17.1733 266.1 16.64 266.1 16.04C266.1 15.4933 266.227 15 266.48 14.56C266.747 14.1067 267.173 13.7467 267.76 13.48C268.36 13.2 269.16 13.06 270.16 13.06H273.78V14.12H270.2C269.187 14.12 268.48 14.3 268.08 14.66C267.693 15.02 267.5 15.4667 267.5 16C267.5 16.6 267.733 17.08 268.2 17.44C268.667 17.8 269.32 17.98 270.16 17.98C270.96 17.98 271.647 17.8 272.22 17.44C272.807 17.0667 273.233 16.5333 273.5 15.84L273.82 16.82C273.553 17.5133 273.087 18.0667 272.42 18.48C271.767 18.8933 270.94 19.1 269.94 19.1ZM278.777 19V8.5H280.137V11.36L279.997 10.86C280.29 10.06 280.784 9.45333 281.477 9.04C282.17 8.61333 283.03 8.4 284.057 8.4V9.78C284.004 9.78 283.95 9.78 283.897 9.78C283.844 9.76667 283.79 9.76 283.737 9.76C282.63 9.76 281.764 10.1 281.137 10.78C280.51 11.4467 280.197 12.4 280.197 13.64V19H278.777ZM290.83 19.1C289.817 19.1 288.904 18.8733 288.09 18.42C287.29 17.9533 286.657 17.32 286.19 16.52C285.724 15.7067 285.49 14.78 285.49 13.74C285.49 12.6867 285.724 11.76 286.19 10.96C286.657 10.16 287.29 9.53333 288.09 9.08C288.89 8.62667 289.804 8.4 290.83 8.4C291.87 8.4 292.79 8.62667 293.59 9.08C294.404 9.53333 295.037 10.16 295.49 10.96C295.957 11.76 296.19 12.6867 296.19 13.74C296.19 14.78 295.957 15.7067 295.49 16.52C295.037 17.32 294.404 17.9533 293.59 18.42C292.777 18.8733 291.857 19.1 290.83 19.1ZM290.83 17.84C291.59 17.84 292.264 17.6733 292.85 17.34C293.437 16.9933 293.897 16.5133 294.23 15.9C294.577 15.2733 294.75 14.5533 294.75 13.74C294.75 12.9133 294.577 12.1933 294.23 11.58C293.897 10.9667 293.437 10.4933 292.85 10.16C292.264 9.81333 291.597 9.64 290.85 9.64C290.104 9.64 289.437 9.81333 288.85 10.16C288.264 10.4933 287.797 10.9667 287.45 11.58C287.104 12.1933 286.93 12.9133 286.93 13.74C286.93 14.5533 287.104 15.2733 287.45 15.9C287.797 16.5133 288.264 16.9933 288.85 17.34C289.437 17.6733 290.097 17.84 290.83 17.84ZM303.429 19.1C302.536 19.1 301.756 18.9333 301.089 18.6C300.423 18.2667 299.903 17.7667 299.529 17.1C299.169 16.4333 298.989 15.6 298.989 14.6V8.5H300.409V14.44C300.409 15.56 300.683 16.4067 301.229 16.98C301.789 17.54 302.569 17.82 303.569 17.82C304.303 17.82 304.936 17.6733 305.469 17.38C306.016 17.0733 306.429 16.6333 306.709 16.06C307.003 15.4867 307.149 14.8 307.149 14V8.5H308.569V19H307.209V16.12L307.429 16.64C307.096 17.4133 306.576 18.02 305.869 18.46C305.176 18.8867 304.363 19.1 303.429 19.1ZM315.347 19.1C314.48 19.1 313.66 18.98 312.887 18.74C312.114 18.4867 311.507 18.1733 311.067 17.8L311.707 16.68C312.134 17 312.68 17.28 313.347 17.52C314.014 17.7467 314.714 17.86 315.447 17.86C316.447 17.86 317.167 17.7067 317.607 17.4C318.047 17.08 318.267 16.66 318.267 16.14C318.267 15.7533 318.14 15.4533 317.887 15.24C317.647 15.0133 317.327 14.8467 316.927 14.74C316.527 14.62 316.08 14.52 315.587 14.44C315.094 14.36 314.6 14.2667 314.107 14.16C313.627 14.0533 313.187 13.9 312.787 13.7C312.387 13.4867 312.06 13.2 311.807 12.84C311.567 12.48 311.447 12 311.447 11.4C311.447 10.8267 311.607 10.3133 311.927 9.86C312.247 9.40667 312.714 9.05333 313.327 8.8C313.954 8.53333 314.714 8.4 315.607 8.4C316.287 8.4 316.967 8.49333 317.647 8.68C318.327 8.85333 318.887 9.08667 319.327 9.38L318.707 10.52C318.24 10.2 317.74 9.97333 317.207 9.84C316.674 9.69333 316.14 9.62 315.607 9.62C314.66 9.62 313.96 9.78667 313.507 10.12C313.067 10.44 312.847 10.8533 312.847 11.36C312.847 11.76 312.967 12.0733 313.207 12.3C313.46 12.5267 313.787 12.7067 314.187 12.84C314.6 12.96 315.047 13.06 315.527 13.14C316.02 13.22 316.507 13.32 316.987 13.44C317.48 13.5467 317.927 13.7 318.327 13.9C318.74 14.0867 319.067 14.36 319.307 14.72C319.56 15.0667 319.687 15.5267 319.687 16.1C319.687 16.7133 319.514 17.2467 319.167 17.7C318.834 18.14 318.34 18.4867 317.687 18.74C317.047 18.98 316.267 19.1 315.347 19.1ZM328.873 19V16.68L328.813 16.3V12.42C328.813 11.5267 328.559 10.84 328.053 10.36C327.559 9.88 326.819 9.64 325.833 9.64C325.153 9.64 324.506 9.75333 323.893 9.98C323.279 10.2067 322.759 10.5067 322.333 10.88L321.693 9.82C322.226 9.36667 322.866 9.02 323.613 8.78C324.359 8.52667 325.146 8.4 325.973 8.4C327.333 8.4 328.379 8.74 329.113 9.42C329.859 10.0867 330.233 11.1067 330.233 12.48V19H328.873ZM325.253 19.1C324.466 19.1 323.779 18.9733 323.193 18.72C322.619 18.4533 322.179 18.0933 321.873 17.64C321.566 17.1733 321.413 16.64 321.413 16.04C321.413 15.4933 321.539 15 321.793 14.56C322.059 14.1067 322.486 13.7467 323.073 13.48C323.673 13.2 324.473 13.06 325.473 13.06H329.093V14.12H325.513C324.499 14.12 323.793 14.3 323.393 14.66C323.006 15.02 322.812 15.4667 322.812 16C322.812 16.6 323.046 17.08 323.513 17.44C323.979 17.8 324.633 17.98 325.473 17.98C326.273 17.98 326.959 17.8 327.533 17.44C328.119 17.0667 328.546 16.5333 328.813 15.84L329.133 16.82C328.866 17.5133 328.399 18.0667 327.733 18.48C327.079 18.8933 326.253 19.1 325.253 19.1ZM334.089 19V4.16H335.509V19H334.089Z" fill="#F2EEF4" fill-opacity="0.8"/>
<path d="M392.44 59.1C391.347 59.1 390.387 58.8733 389.56 58.42C388.733 57.9533 388.087 57.32 387.62 56.52C387.153 55.7067 386.92 54.78 386.92 53.74C386.92 52.7 387.14 51.78 387.58 50.98C388.033 50.18 388.647 49.5533 389.42 49.1C390.207 48.6333 391.087 48.4 392.06 48.4C393.047 48.4 393.92 48.6267 394.68 49.08C395.453 49.52 396.06 50.1467 396.5 50.96C396.94 51.76 397.16 52.6867 397.16 53.74C397.16 53.8067 397.153 53.88 397.14 53.96C397.14 54.0267 397.14 54.1 397.14 54.18H388V53.12H396.38L395.82 53.54C395.82 52.78 395.653 52.1067 395.32 51.52C395 50.92 394.56 50.4533 394 50.12C393.44 49.7867 392.793 49.62 392.06 49.62C391.34 49.62 390.693 49.7867 390.12 50.12C389.547 50.4533 389.1 50.92 388.78 51.52C388.46 52.12 388.3 52.8067 388.3 53.58V53.8C388.3 54.6 388.473 55.3067 388.82 55.92C389.18 56.52 389.673 56.9933 390.3 57.34C390.94 57.6733 391.667 57.84 392.48 57.84C393.12 57.84 393.713 57.7267 394.26 57.5C394.82 57.2733 395.3 56.9267 395.7 56.46L396.5 57.38C396.033 57.94 395.447 58.3667 394.74 58.66C394.047 58.9533 393.28 59.1 392.44 59.1ZM398.157 59L402.597 53.24L402.577 53.94L398.357 48.5H399.957L403.417 53L402.817 52.98L406.277 48.5H407.837L403.577 54L403.597 53.24L408.077 59H406.457L402.797 54.2L403.357 54.28L399.757 59H398.157ZM414.43 59.1C413.39 59.1 412.457 58.8733 411.63 58.42C410.817 57.9533 410.177 57.32 409.71 56.52C409.243 55.7067 409.01 54.78 409.01 53.74C409.01 52.6867 409.243 51.76 409.71 50.96C410.177 50.16 410.817 49.5333 411.63 49.08C412.457 48.6267 413.39 48.4 414.43 48.4C415.323 48.4 416.13 48.5733 416.85 48.92C417.57 49.2667 418.137 49.7867 418.55 50.48L417.49 51.2C417.13 50.6667 416.683 50.2733 416.15 50.02C415.617 49.7667 415.037 49.64 414.41 49.64C413.663 49.64 412.99 49.8133 412.39 50.16C411.79 50.4933 411.317 50.9667 410.97 51.58C410.623 52.1933 410.45 52.9133 410.45 53.74C410.45 54.5667 410.623 55.2867 410.97 55.9C411.317 56.5133 411.79 56.9933 412.39 57.34C412.99 57.6733 413.663 57.84 414.41 57.84C415.037 57.84 415.617 57.7133 416.15 57.46C416.683 57.2067 417.13 56.82 417.49 56.3L418.55 57.02C418.137 57.7 417.57 58.22 416.85 58.58C416.13 58.9267 415.323 59.1 414.43 59.1ZM421.183 59V48.5H422.603V59H421.183ZM421.903 46.18C421.61 46.18 421.363 46.08 421.163 45.88C420.963 45.68 420.863 45.44 420.863 45.16C420.863 44.88 420.963 44.6467 421.163 44.46C421.363 44.26 421.61 44.16 421.903 44.16C422.196 44.16 422.443 44.2533 422.643 44.44C422.843 44.6267 422.943 44.86 422.943 45.14C422.943 45.4333 422.843 45.68 422.643 45.88C422.456 46.08 422.21 46.18 421.903 46.18ZM429.874 59.1C428.888 59.1 428.128 58.8333 427.594 58.3C427.061 57.7667 426.794 57.0133 426.794 56.04V46.18H428.214V55.96C428.214 56.5733 428.368 57.0467 428.674 57.38C428.994 57.7133 429.448 57.88 430.034 57.88C430.661 57.88 431.181 57.7 431.594 57.34L432.094 58.36C431.814 58.6133 431.474 58.8 431.074 58.92C430.688 59.04 430.288 59.1 429.874 59.1ZM424.914 49.68V48.5H431.414V49.68H424.914ZM438.768 59.1C437.675 59.1 436.715 58.8733 435.888 58.42C435.061 57.9533 434.415 57.32 433.948 56.52C433.481 55.7067 433.248 54.78 433.248 53.74C433.248 52.7 433.468 51.78 433.908 50.98C434.361 50.18 434.975 49.5533 435.748 49.1C436.535 48.6333 437.415 48.4 438.388 48.4C439.375 48.4 440.248 48.6267 441.008 49.08C441.781 49.52 442.388 50.1467 442.828 50.96C443.268 51.76 443.488 52.6867 443.488 53.74C443.488 53.8067 443.481 53.88 443.468 53.96C443.468 54.0267 443.468 54.1 443.468 54.18H434.328V53.12H442.708L442.148 53.54C442.148 52.78 441.981 52.1067 441.648 51.52C441.328 50.92 440.888 50.4533 440.328 50.12C439.768 49.7867 439.121 49.62 438.388 49.62C437.668 49.62 437.021 49.7867 436.448 50.12C435.875 50.4533 435.428 50.92 435.108 51.52C434.788 52.12 434.628 52.8067 434.628 53.58V53.8C434.628 54.6 434.801 55.3067 435.148 55.92C435.508 56.52 436.001 56.9933 436.628 57.34C437.268 57.6733 437.995 57.84 438.808 57.84C439.448 57.84 440.041 57.7267 440.588 57.5C441.148 57.2733 441.628 56.9267 442.028 56.46L442.828 57.38C442.361 57.94 441.775 58.3667 441.068 58.66C440.375 58.9533 439.608 59.1 438.768 59.1ZM450.558 59.1C449.558 59.1 448.658 58.8733 447.858 58.42C447.072 57.9667 446.452 57.34 445.998 56.54C445.545 55.7267 445.318 54.7933 445.318 53.74C445.318 52.6733 445.545 51.74 445.998 50.94C446.452 50.14 447.072 49.52 447.858 49.08C448.658 48.6267 449.558 48.4 450.558 48.4C451.478 48.4 452.298 48.6067 453.018 49.02C453.752 49.4333 454.332 50.04 454.758 50.84C455.198 51.6267 455.418 52.5933 455.418 53.74C455.418 54.8733 455.205 55.84 454.778 56.64C454.352 57.44 453.772 58.0533 453.038 58.48C452.318 58.8933 451.492 59.1 450.558 59.1ZM450.658 57.84C451.405 57.84 452.072 57.6733 452.658 57.34C453.258 56.9933 453.725 56.5133 454.058 55.9C454.405 55.2733 454.578 54.5533 454.578 53.74C454.578 52.9133 454.405 52.1933 454.058 51.58C453.725 50.9667 453.258 50.4933 452.658 50.16C452.072 49.8133 451.405 49.64 450.658 49.64C449.925 49.64 449.265 49.8133 448.678 50.16C448.092 50.4933 447.625 50.9667 447.278 51.58C446.932 52.1933 446.758 52.9133 446.758 53.74C446.758 54.5533 446.932 55.2733 447.278 55.9C447.625 56.5133 448.092 56.9933 448.678 57.34C449.265 57.6733 449.925 57.84 450.658 57.84ZM454.618 59V55.84L454.758 53.72L454.558 51.6V44.16H455.978V59H454.618Z" fill="#F2EEF4" fill-opacity="0.3"/>
<path d="M451.42 138.98C450.993 138.98 450.587 138.92 450.2 138.8C449.8 138.693 449.467 138.527 449.2 138.3L449.7 137.22C450.127 137.58 450.673 137.76 451.34 137.76C451.9 137.76 452.327 137.593 452.62 137.26C452.927 136.927 453.08 136.433 453.08 135.78V124.5H454.5V135.78C454.5 136.753 454.233 137.527 453.7 138.1C453.18 138.687 452.42 138.98 451.42 138.98ZM453.8 122.18C453.507 122.18 453.26 122.08 453.06 121.88C452.86 121.68 452.76 121.44 452.76 121.16C452.76 120.88 452.86 120.647 453.06 120.46C453.26 120.26 453.507 120.16 453.8 120.16C454.093 120.16 454.34 120.253 454.54 120.44C454.74 120.627 454.84 120.86 454.84 121.14C454.84 121.433 454.74 121.68 454.54 121.88C454.353 122.08 454.107 122.18 453.8 122.18ZM462.748 135.1C461.735 135.1 460.822 134.873 460.008 134.42C459.208 133.953 458.575 133.32 458.108 132.52C457.642 131.707 457.408 130.78 457.408 129.74C457.408 128.687 457.642 127.76 458.108 126.96C458.575 126.16 459.208 125.533 460.008 125.08C460.808 124.627 461.722 124.4 462.748 124.4C463.788 124.4 464.708 124.627 465.508 125.08C466.322 125.533 466.955 126.16 467.408 126.96C467.875 127.76 468.108 128.687 468.108 129.74C468.108 130.78 467.875 131.707 467.408 132.52C466.955 133.32 466.322 133.953 465.508 134.42C464.695 134.873 463.775 135.1 462.748 135.1ZM462.748 133.84C463.508 133.84 464.182 133.673 464.768 133.34C465.355 132.993 465.815 132.513 466.148 131.9C466.495 131.273 466.668 130.553 466.668 129.74C466.668 128.913 466.495 128.193 466.148 127.58C465.815 126.967 465.355 126.493 464.768 126.16C464.182 125.813 463.515 125.64 462.768 125.64C462.022 125.64 461.355 125.813 460.768 126.16C460.182 126.493 459.715 126.967 459.368 127.58C459.022 128.193 458.848 128.913 458.848 129.74C458.848 130.553 459.022 131.273 459.368 131.9C459.715 132.513 460.182 132.993 460.768 133.34C461.355 133.673 462.015 133.84 462.748 133.84ZM470.794 138.98C470.301 138.98 469.828 138.9 469.374 138.74C468.934 138.58 468.554 138.34 468.234 138.02L468.894 136.96C469.161 137.213 469.448 137.407 469.754 137.54C470.074 137.687 470.428 137.76 470.814 137.76C471.281 137.76 471.681 137.627 472.014 137.36C472.361 137.107 472.688 136.653 472.994 136L473.674 134.46L473.834 134.24L478.154 124.5H479.554L474.294 136.26C474.001 136.94 473.674 137.48 473.314 137.88C472.968 138.28 472.588 138.56 472.174 138.72C471.761 138.893 471.301 138.98 470.794 138.98ZM473.594 135.3L468.754 124.5H470.234L474.514 134.14L473.594 135.3ZM485.541 135.1C484.528 135.1 483.615 134.873 482.801 134.42C482.001 133.953 481.368 133.32 480.901 132.52C480.435 131.707 480.201 130.78 480.201 129.74C480.201 128.687 480.435 127.76 480.901 126.96C481.368 126.16 482.001 125.533 482.801 125.08C483.601 124.627 484.515 124.4 485.541 124.4C486.581 124.4 487.501 124.627 488.301 125.08C489.115 125.533 489.748 126.16 490.201 126.96C490.668 127.76 490.901 128.687 490.901 129.74C490.901 130.78 490.668 131.707 490.201 132.52C489.748 133.32 489.115 133.953 488.301 134.42C487.488 134.873 486.568 135.1 485.541 135.1ZM485.541 133.84C486.301 133.84 486.975 133.673 487.561 133.34C488.148 132.993 488.608 132.513 488.941 131.9C489.288 131.273 489.461 130.553 489.461 129.74C489.461 128.913 489.288 128.193 488.941 127.58C488.608 126.967 488.148 126.493 487.561 126.16C486.975 125.813 486.308 125.64 485.561 125.64C484.815 125.64 484.148 125.813 483.561 126.16C482.975 126.493 482.508 126.967 482.161 127.58C481.815 128.193 481.641 128.913 481.641 129.74C481.641 130.553 481.815 131.273 482.161 131.9C482.508 132.513 482.975 132.993 483.561 133.34C484.148 133.673 484.808 133.84 485.541 133.84ZM498.14 135.1C497.247 135.1 496.467 134.933 495.8 134.6C495.134 134.267 494.614 133.767 494.24 133.1C493.88 132.433 493.7 131.6 493.7 130.6V124.5H495.12V130.44C495.12 131.56 495.394 132.407 495.94 132.98C496.5 133.54 497.28 133.82 498.28 133.82C499.014 133.82 499.647 133.673 500.18 133.38C500.727 133.073 501.14 132.633 501.42 132.06C501.714 131.487 501.86 130.8 501.86 130V124.5H503.28V135H501.92V132.12L502.14 132.64C501.807 133.413 501.287 134.02 500.58 134.46C499.887 134.887 499.074 135.1 498.14 135.1ZM510.058 135.1C509.191 135.1 508.371 134.98 507.598 134.74C506.824 134.487 506.218 134.173 505.778 133.8L506.418 132.68C506.844 133 507.391 133.28 508.058 133.52C508.724 133.747 509.424 133.86 510.158 133.86C511.158 133.86 511.878 133.707 512.318 133.4C512.758 133.08 512.978 132.66 512.978 132.14C512.978 131.753 512.851 131.453 512.598 131.24C512.358 131.013 512.038 130.847 511.638 130.74C511.238 130.62 510.791 130.52 510.298 130.44C509.804 130.36 509.311 130.267 508.818 130.16C508.338 130.053 507.898 129.9 507.498 129.7C507.098 129.487 506.771 129.2 506.518 128.84C506.278 128.48 506.158 128 506.158 127.4C506.158 126.827 506.318 126.313 506.638 125.86C506.958 125.407 507.424 125.053 508.038 124.8C508.664 124.533 509.424 124.4 510.318 124.4C510.998 124.4 511.678 124.493 512.358 124.68C513.038 124.853 513.598 125.087 514.038 125.38L513.418 126.52C512.951 126.2 512.451 125.973 511.918 125.84C511.384 125.693 510.851 125.62 510.318 125.62C509.371 125.62 508.671 125.787 508.218 126.12C507.778 126.44 507.558 126.853 507.558 127.36C507.558 127.76 507.678 128.073 507.918 128.3C508.171 128.527 508.498 128.707 508.898 128.84C509.311 128.96 509.758 129.06 510.238 129.14C510.731 129.22 511.218 129.32 511.698 129.44C512.191 129.547 512.638 129.7 513.038 129.9C513.451 130.087 513.778 130.36 514.018 130.72C514.271 131.067 514.398 131.527 514.398 132.1C514.398 132.713 514.224 133.247 513.878 133.7C513.544 134.14 513.051 134.487 512.398 134.74C511.758 134.98 510.978 135.1 510.058 135.1Z" fill="#F2EEF4" fill-opacity="0.3"/>
<path d="M498.34 191.4C499.193 191.4 499.94 191.567 500.58 191.9C501.233 192.22 501.74 192.713 502.1 193.38C502.473 194.047 502.66 194.887 502.66 195.9V202H501.24V196.04C501.24 194.933 500.96 194.1 500.4 193.54C499.853 192.967 499.08 192.68 498.08 192.68C497.333 192.68 496.68 192.833 496.12 193.14C495.573 193.433 495.147 193.867 494.84 194.44C494.547 195 494.4 195.68 494.4 196.48V202H492.98V187.16H494.4V194.38L494.12 193.84C494.453 193.08 494.987 192.487 495.72 192.06C496.453 191.62 497.327 191.4 498.34 191.4ZM513.076 202V199.68L513.016 199.3V195.42C513.016 194.527 512.762 193.84 512.256 193.36C511.762 192.88 511.022 192.64 510.036 192.64C509.356 192.64 508.709 192.753 508.096 192.98C507.482 193.207 506.962 193.507 506.536 193.88L505.896 192.82C506.429 192.367 507.069 192.02 507.816 191.78C508.562 191.527 509.349 191.4 510.176 191.4C511.536 191.4 512.582 191.74 513.316 192.42C514.062 193.087 514.436 194.107 514.436 195.48V202H513.076ZM509.456 202.1C508.669 202.1 507.982 201.973 507.396 201.72C506.822 201.453 506.382 201.093 506.076 200.64C505.769 200.173 505.616 199.64 505.616 199.04C505.616 198.493 505.742 198 505.996 197.56C506.262 197.107 506.689 196.747 507.276 196.48C507.876 196.2 508.676 196.06 509.676 196.06H513.296V197.12H509.716C508.702 197.12 507.996 197.3 507.596 197.66C507.209 198.02 507.016 198.467 507.016 199C507.016 199.6 507.249 200.08 507.716 200.44C508.182 200.8 508.836 200.98 509.676 200.98C510.476 200.98 511.162 200.8 511.736 200.44C512.322 200.067 512.749 199.533 513.016 198.84L513.336 199.82C513.069 200.513 512.602 201.067 511.936 201.48C511.282 201.893 510.456 202.1 509.456 202.1ZM523.713 202.1C522.806 202.1 521.986 201.893 521.253 201.48C520.519 201.053 519.933 200.447 519.493 199.66C519.066 198.86 518.853 197.887 518.853 196.74C518.853 195.593 519.066 194.627 519.493 193.84C519.919 193.04 520.499 192.433 521.233 192.02C521.966 191.607 522.793 191.4 523.713 191.4C524.713 191.4 525.606 191.627 526.393 192.08C527.193 192.52 527.819 193.147 528.273 193.96C528.726 194.76 528.953 195.687 528.953 196.74C528.953 197.807 528.726 198.74 528.273 199.54C527.819 200.34 527.193 200.967 526.393 201.42C525.606 201.873 524.713 202.1 523.713 202.1ZM518.293 205.88V191.5H519.653V194.66L519.513 196.76L519.713 198.88V205.88H518.293ZM523.613 200.84C524.359 200.84 525.026 200.673 525.613 200.34C526.199 199.993 526.666 199.513 527.013 198.9C527.359 198.273 527.533 197.553 527.533 196.74C527.533 195.927 527.359 195.213 527.013 194.6C526.666 193.987 526.199 193.507 525.613 193.16C525.026 192.813 524.359 192.64 523.613 192.64C522.866 192.64 522.193 192.813 521.592 193.16C521.006 193.507 520.539 193.987 520.193 194.6C519.859 195.213 519.693 195.927 519.693 196.74C519.693 197.553 519.859 198.273 520.193 198.9C520.539 199.513 521.006 199.993 521.592 200.34C522.193 200.673 522.866 200.84 523.613 200.84ZM537.267 202.1C536.361 202.1 535.541 201.893 534.807 201.48C534.074 201.053 533.487 200.447 533.047 199.66C532.621 198.86 532.407 197.887 532.407 196.74C532.407 195.593 532.621 194.627 533.047 193.84C533.474 193.04 534.054 192.433 534.787 192.02C535.521 191.607 536.347 191.4 537.267 191.4C538.267 191.4 539.161 191.627 539.947 192.08C540.747 192.52 541.374 193.147 541.827 193.96C542.281 194.76 542.507 195.687 542.507 196.74C542.507 197.807 542.281 198.74 541.827 199.54C541.374 200.34 540.747 200.967 539.947 201.42C539.161 201.873 538.267 202.1 537.267 202.1ZM531.847 205.88V191.5H533.207V194.66L533.067 196.76L533.267 198.88V205.88H531.847ZM537.167 200.84C537.914 200.84 538.581 200.673 539.167 200.34C539.754 199.993 540.221 199.513 540.567 198.9C540.914 198.273 541.087 197.553 541.087 196.74C541.087 195.927 540.914 195.213 540.567 194.6C540.221 193.987 539.754 193.507 539.167 193.16C538.581 192.813 537.914 192.64 537.167 192.64C536.421 192.64 535.747 192.813 535.147 193.16C534.561 193.507 534.094 193.987 533.747 194.6C533.414 195.213 533.247 195.927 533.247 196.74C533.247 197.553 533.414 198.273 533.747 198.9C534.094 199.513 534.561 199.993 535.147 200.34C535.747 200.673 536.421 200.84 537.167 200.84ZM545.189 205.98C544.696 205.98 544.222 205.9 543.769 205.74C543.329 205.58 542.949 205.34 542.629 205.02L543.289 203.96C543.556 204.213 543.842 204.407 544.149 204.54C544.469 204.687 544.822 204.76 545.209 204.76C545.676 204.76 546.076 204.627 546.409 204.36C546.756 204.107 547.082 203.653 547.389 203L548.069 201.46L548.229 201.24L552.549 191.5H553.949L548.689 203.26C548.396 203.94 548.069 204.48 547.709 204.88C547.362 205.28 546.982 205.56 546.569 205.72C546.156 205.893 545.696 205.98 545.189 205.98ZM547.989 202.3L543.149 191.5H544.629L548.909 201.14L547.989 202.3Z" fill="#F2EEF4" fill-opacity="0.3"/>
<path d="M95.56 133V130.68L95.5 130.3V126.42C95.5 125.527 95.2467 124.84 94.74 124.36C94.2467 123.88 93.5067 123.64 92.52 123.64C91.84 123.64 91.1933 123.753 90.58 123.98C89.9667 124.207 89.4467 124.507 89.02 124.88L88.38 123.82C88.9133 123.367 89.5533 123.02 90.3 122.78C91.0467 122.527 91.8333 122.4 92.66 122.4C94.02 122.4 95.0667 122.74 95.8 123.42C96.5467 124.087 96.92 125.107 96.92 126.48V133H95.56ZM91.94 133.1C91.1533 133.1 90.4667 132.973 89.88 132.72C89.3067 132.453 88.8667 132.093 88.56 131.64C88.2533 131.173 88.1 130.64 88.1 130.04C88.1 129.493 88.2267 129 88.48 128.56C88.7467 128.107 89.1733 127.747 89.76 127.48C90.36 127.2 91.16 127.06 92.16 127.06H95.78V128.12H92.2C91.1867 128.12 90.48 128.3 90.08 128.66C89.6933 129.02 89.5 129.467 89.5 130C89.5 130.6 89.7333 131.08 90.2 131.44C90.6667 131.8 91.32 131.98 92.16 131.98C92.96 131.98 93.6467 131.8 94.22 131.44C94.8067 131.067 95.2333 130.533 95.5 129.84L95.82 130.82C95.5533 131.513 95.0867 132.067 94.42 132.48C93.7667 132.893 92.94 133.1 91.94 133.1ZM106.137 122.4C106.99 122.4 107.737 122.567 108.377 122.9C109.03 123.22 109.537 123.713 109.897 124.38C110.27 125.047 110.457 125.887 110.457 126.9V133H109.037V127.04C109.037 125.933 108.757 125.1 108.197 124.54C107.65 123.967 106.877 123.68 105.877 123.68C105.13 123.68 104.477 123.833 103.917 124.14C103.37 124.433 102.944 124.867 102.637 125.44C102.344 126 102.197 126.68 102.197 127.48V133H100.777V122.5H102.137V125.38L101.917 124.84C102.25 124.08 102.784 123.487 103.517 123.06C104.25 122.62 105.124 122.4 106.137 122.4ZM118.773 136.98C117.813 136.98 116.893 136.84 116.013 136.56C115.133 136.28 114.419 135.88 113.873 135.36L114.593 134.28C115.086 134.72 115.693 135.067 116.413 135.32C117.146 135.587 117.919 135.72 118.733 135.72C120.066 135.72 121.046 135.407 121.673 134.78C122.299 134.167 122.613 133.207 122.613 131.9V129.28L122.813 127.48L122.673 125.68V122.5H124.033V131.72C124.033 133.533 123.586 134.86 122.693 135.7C121.813 136.553 120.506 136.98 118.773 136.98ZM118.513 132.6C117.513 132.6 116.613 132.387 115.813 131.96C115.013 131.52 114.379 130.913 113.913 130.14C113.459 129.367 113.233 128.48 113.233 127.48C113.233 126.48 113.459 125.6 113.913 124.84C114.379 124.067 115.013 123.467 115.813 123.04C116.613 122.613 117.513 122.4 118.513 122.4C119.446 122.4 120.286 122.593 121.033 122.98C121.779 123.367 122.373 123.94 122.813 124.7C123.253 125.46 123.473 126.387 123.473 127.48C123.473 128.573 123.253 129.5 122.813 130.26C122.373 131.02 121.779 131.6 121.033 132C120.286 132.4 119.446 132.6 118.513 132.6ZM118.653 131.34C119.426 131.34 120.113 131.18 120.713 130.86C121.313 130.527 121.786 130.073 122.133 129.5C122.479 128.913 122.653 128.24 122.653 127.48C122.653 126.72 122.479 126.053 122.133 125.48C121.786 124.907 121.313 124.46 120.713 124.14C120.113 123.807 119.426 123.64 118.653 123.64C117.893 123.64 117.206 123.807 116.593 124.14C115.993 124.46 115.519 124.907 115.173 125.48C114.839 126.053 114.673 126.72 114.673 127.48C114.673 128.24 114.839 128.913 115.173 129.5C115.519 130.073 115.993 130.527 116.593 130.86C117.206 131.18 117.893 131.34 118.653 131.34ZM127.984 133V122.5H129.344V125.36L129.204 124.86C129.497 124.06 129.991 123.453 130.684 123.04C131.377 122.613 132.237 122.4 133.264 122.4V123.78C133.211 123.78 133.157 123.78 133.104 123.78C133.051 123.767 132.997 123.76 132.944 123.76C131.837 123.76 130.971 124.1 130.344 124.78C129.717 125.447 129.404 126.4 129.404 127.64V133H127.984ZM136.384 136.98C135.891 136.98 135.418 136.9 134.964 136.74C134.524 136.58 134.144 136.34 133.824 136.02L134.484 134.96C134.751 135.213 135.038 135.407 135.344 135.54C135.664 135.687 136.018 135.76 136.404 135.76C136.871 135.76 137.271 135.627 137.604 135.36C137.951 135.107 138.278 134.653 138.584 134L139.264 132.46L139.424 132.24L143.744 122.5H145.144L139.884 134.26C139.591 134.94 139.264 135.48 138.904 135.88C138.558 136.28 138.178 136.56 137.764 136.72C137.351 136.893 136.891 136.98 136.384 136.98ZM139.184 133.3L134.344 122.5H135.824L140.104 132.14L139.184 133.3Z" fill="#F2EEF4" fill-opacity="0.3"/>
<path d="M44.16 205.1C43.16 205.1 42.26 204.873 41.46 204.42C40.6733 203.967 40.0533 203.34 39.6 202.54C39.1467 201.727 38.92 200.793 38.92 199.74C38.92 198.673 39.1467 197.74 39.6 196.94C40.0533 196.14 40.6733 195.52 41.46 195.08C42.26 194.627 43.16 194.4 44.16 194.4C45.08 194.4 45.9 194.607 46.62 195.02C47.3533 195.433 47.9333 196.04 48.36 196.84C48.8 197.627 49.02 198.593 49.02 199.74C49.02 200.873 48.8067 201.84 48.38 202.64C47.9533 203.44 47.3733 204.053 46.64 204.48C45.92 204.893 45.0933 205.1 44.16 205.1ZM44.26 203.84C45.0067 203.84 45.6733 203.673 46.26 203.34C46.86 202.993 47.3267 202.513 47.66 201.9C48.0067 201.273 48.18 200.553 48.18 199.74C48.18 198.913 48.0067 198.193 47.66 197.58C47.3267 196.967 46.86 196.493 46.26 196.16C45.6733 195.813 45.0067 195.64 44.26 195.64C43.5267 195.64 42.8667 195.813 42.28 196.16C41.6933 196.493 41.2267 196.967 40.88 197.58C40.5333 198.193 40.36 198.913 40.36 199.74C40.36 200.553 40.5333 201.273 40.88 201.9C41.2267 202.513 41.6933 202.993 42.28 203.34C42.8667 203.673 43.5267 203.84 44.26 203.84ZM48.22 205V201.84L48.36 199.72L48.16 197.6V190.16H49.58V205H48.22ZM53.5347 205V194.5H54.9547V205H53.5347ZM54.2547 192.18C53.9614 192.18 53.7147 192.08 53.5147 191.88C53.3147 191.68 53.2147 191.44 53.2147 191.16C53.2147 190.88 53.3147 190.647 53.5147 190.46C53.7147 190.26 53.9614 190.16 54.2547 190.16C54.548 190.16 54.7947 190.253 54.9947 190.44C55.1947 190.627 55.2947 190.86 55.2947 191.14C55.2947 191.433 55.1947 191.68 54.9947 191.88C54.808 192.08 54.5614 192.18 54.2547 192.18ZM61.7258 205.1C60.8591 205.1 60.0391 204.98 59.2658 204.74C58.4924 204.487 57.8858 204.173 57.4458 203.8L58.0858 202.68C58.5124 203 59.0591 203.28 59.7258 203.52C60.3924 203.747 61.0924 203.86 61.8258 203.86C62.8258 203.86 63.5458 203.707 63.9858 203.4C64.4258 203.08 64.6458 202.66 64.6458 202.14C64.6458 201.753 64.5191 201.453 64.2658 201.24C64.0258 201.013 63.7058 200.847 63.3058 200.74C62.9058 200.62 62.4591 200.52 61.9658 200.44C61.4724 200.36 60.9791 200.267 60.4858 200.16C60.0058 200.053 59.5658 199.9 59.1658 199.7C58.7658 199.487 58.4391 199.2 58.1858 198.84C57.9458 198.48 57.8258 198 57.8258 197.4C57.8258 196.827 57.9858 196.313 58.3058 195.86C58.6258 195.407 59.0924 195.053 59.7058 194.8C60.3324 194.533 61.0924 194.4 61.9858 194.4C62.6658 194.4 63.3458 194.493 64.0258 194.68C64.7058 194.853 65.2658 195.087 65.7058 195.38L65.0858 196.52C64.6191 196.2 64.1191 195.973 63.5858 195.84C63.0524 195.693 62.5191 195.62 61.9858 195.62C61.0391 195.62 60.3391 195.787 59.8858 196.12C59.4458 196.44 59.2258 196.853 59.2258 197.36C59.2258 197.76 59.3458 198.073 59.5858 198.3C59.8391 198.527 60.1658 198.707 60.5658 198.84C60.9791 198.96 61.4258 199.06 61.9058 199.14C62.3991 199.22 62.8858 199.32 63.3658 199.44C63.8591 199.547 64.3058 199.7 64.7058 199.9C65.1191 200.087 65.4458 200.36 65.6858 200.72C65.9391 201.067 66.0658 201.527 66.0658 202.1C66.0658 202.713 65.8924 203.247 65.5458 203.7C65.2124 204.14 64.7191 204.487 64.0658 204.74C63.4258 204.98 62.6458 205.1 61.7258 205.1ZM71.9914 205.1C71.0047 205.1 70.2447 204.833 69.7114 204.3C69.1781 203.767 68.9114 203.013 68.9114 202.04V192.18H70.3314V201.96C70.3314 202.573 70.4847 203.047 70.7914 203.38C71.1114 203.713 71.5647 203.88 72.1514 203.88C72.7781 203.88 73.2981 203.7 73.7114 203.34L74.2114 204.36C73.9314 204.613 73.5914 204.8 73.1914 204.92C72.8047 205.04 72.4047 205.1 71.9914 205.1ZM67.0314 195.68V194.5H73.5314V195.68H67.0314ZM76.7964 205V194.5H78.1564V197.36L78.0164 196.86C78.3097 196.06 78.8031 195.453 79.4964 195.04C80.1897 194.613 81.0497 194.4 82.0764 194.4V195.78C82.0231 195.78 81.9697 195.78 81.9164 195.78C81.8631 195.767 81.8097 195.76 81.7564 195.76C80.6497 195.76 79.7831 196.1 79.1564 196.78C78.5297 197.447 78.2164 198.4 78.2164 199.64V205H76.7964ZM89.0298 205.1C87.9365 205.1 86.9765 204.873 86.1498 204.42C85.3232 203.953 84.6765 203.32 84.2098 202.52C83.7432 201.707 83.5098 200.78 83.5098 199.74C83.5098 198.7 83.7298 197.78 84.1698 196.98C84.6232 196.18 85.2365 195.553 86.0098 195.1C86.7965 194.633 87.6765 194.4 88.6498 194.4C89.6365 194.4 90.5098 194.627 91.2698 195.08C92.0432 195.52 92.6498 196.147 93.0898 196.96C93.5298 197.76 93.7498 198.687 93.7498 199.74C93.7498 199.807 93.7432 199.88 93.7298 199.96C93.7298 200.027 93.7298 200.1 93.7298 200.18H84.5898V199.12H92.9698L92.4098 199.54C92.4098 198.78 92.2432 198.107 91.9098 197.52C91.5898 196.92 91.1498 196.453 90.5898 196.12C90.0298 195.787 89.3832 195.62 88.6498 195.62C87.9298 195.62 87.2832 195.787 86.7098 196.12C86.1365 196.453 85.6898 196.92 85.3698 197.52C85.0498 198.12 84.8898 198.807 84.8898 199.58V199.8C84.8898 200.6 85.0632 201.307 85.4098 201.92C85.7698 202.52 86.2632 202.993 86.8898 203.34C87.5298 203.673 88.2565 203.84 89.0698 203.84C89.7098 203.84 90.3032 203.727 90.8498 203.5C91.4098 203.273 91.8898 202.927 92.2898 202.46L93.0898 203.38C92.6232 203.94 92.0365 204.367 91.3298 204.66C90.6365 204.953 89.8698 205.1 89.0298 205.1ZM99.4602 205.1C98.5935 205.1 97.7735 204.98 97.0002 204.74C96.2268 204.487 95.6202 204.173 95.1802 203.8L95.8202 202.68C96.2468 203 96.7935 203.28 97.4602 203.52C98.1268 203.747 98.8268 203.86 99.5602 203.86C100.56 203.86 101.28 203.707 101.72 203.4C102.16 203.08 102.38 202.66 102.38 202.14C102.38 201.753 102.253 201.453 102 201.24C101.76 201.013 101.44 200.847 101.04 200.74C100.64 200.62 100.193 200.52 99.7002 200.44C99.2068 200.36 98.7135 200.267 98.2202 200.16C97.7402 200.053 97.3002 199.9 96.9002 199.7C96.5002 199.487 96.1735 199.2 95.9202 198.84C95.6802 198.48 95.5602 198 95.5602 197.4C95.5602 196.827 95.7202 196.313 96.0402 195.86C96.3602 195.407 96.8268 195.053 97.4402 194.8C98.0668 194.533 98.8268 194.4 99.7202 194.4C100.4 194.4 101.08 194.493 101.76 194.68C102.44 194.853 103 195.087 103.44 195.38L102.82 196.52C102.353 196.2 101.853 195.973 101.32 195.84C100.787 195.693 100.253 195.62 99.7202 195.62C98.7735 195.62 98.0735 195.787 97.6202 196.12C97.1802 196.44 96.9602 196.853 96.9602 197.36C96.9602 197.76 97.0802 198.073 97.3202 198.3C97.5735 198.527 97.9002 198.707 98.3002 198.84C98.7135 198.96 99.1602 199.06 99.6402 199.14C100.133 199.22 100.62 199.32 101.1 199.44C101.593 199.547 102.04 199.7 102.44 199.9C102.853 200.087 103.18 200.36 103.42 200.72C103.673 201.067 103.8 201.527 103.8 202.1C103.8 202.713 103.627 203.247 103.28 203.7C102.947 204.14 102.453 204.487 101.8 204.74C101.16 204.98 100.38 205.1 99.4602 205.1ZM109.226 205.1C108.359 205.1 107.539 204.98 106.766 204.74C105.992 204.487 105.386 204.173 104.946 203.8L105.586 202.68C106.012 203 106.559 203.28 107.226 203.52C107.892 203.747 108.592 203.86 109.326 203.86C110.326 203.86 111.046 203.707 111.486 203.4C111.926 203.08 112.146 202.66 112.146 202.14C112.146 201.753 112.019 201.453 111.766 201.24C111.526 201.013 111.206 200.847 110.806 200.74C110.406 200.62 109.959 200.52 109.466 200.44C108.972 200.36 108.479 200.267 107.986 200.16C107.506 200.053 107.066 199.9 106.666 199.7C106.266 199.487 105.939 199.2 105.686 198.84C105.446 198.48 105.326 198 105.326 197.4C105.326 196.827 105.486 196.313 105.806 195.86C106.126 195.407 106.592 195.053 107.206 194.8C107.832 194.533 108.592 194.4 109.486 194.4C110.166 194.4 110.846 194.493 111.526 194.68C112.206 194.853 112.766 195.087 113.206 195.38L112.586 196.52C112.119 196.2 111.619 195.973 111.086 195.84C110.552 195.693 110.019 195.62 109.486 195.62C108.539 195.62 107.839 195.787 107.386 196.12C106.946 196.44 106.726 196.853 106.726 197.36C106.726 197.76 106.846 198.073 107.086 198.3C107.339 198.527 107.666 198.707 108.066 198.84C108.479 198.96 108.926 199.06 109.406 199.14C109.899 199.22 110.386 199.32 110.866 199.44C111.359 199.547 111.806 199.7 112.206 199.9C112.619 200.087 112.946 200.36 113.186 200.72C113.439 201.067 113.566 201.527 113.566 202.1C113.566 202.713 113.392 203.247 113.046 203.7C112.712 204.14 112.219 204.487 111.566 204.74C110.926 204.98 110.146 205.1 109.226 205.1ZM120.631 205.1C119.538 205.1 118.578 204.873 117.751 204.42C116.925 203.953 116.278 203.32 115.811 202.52C115.345 201.707 115.111 200.78 115.111 199.74C115.111 198.7 115.331 197.78 115.771 196.98C116.225 196.18 116.838 195.553 117.611 195.1C118.398 194.633 119.278 194.4 120.251 194.4C121.238 194.4 122.111 194.627 122.871 195.08C123.645 195.52 124.251 196.147 124.691 196.96C125.131 197.76 125.351 198.687 125.351 199.74C125.351 199.807 125.345 199.88 125.331 199.96C125.331 200.027 125.331 200.1 125.331 200.18H116.191V199.12H124.571L124.011 199.54C124.011 198.78 123.845 198.107 123.511 197.52C123.191 196.92 122.751 196.453 122.191 196.12C121.631 195.787 120.985 195.62 120.251 195.62C119.531 195.62 118.885 195.787 118.311 196.12C117.738 196.453 117.291 196.92 116.971 197.52C116.651 198.12 116.491 198.807 116.491 199.58V199.8C116.491 200.6 116.665 201.307 117.011 201.92C117.371 202.52 117.865 202.993 118.491 203.34C119.131 203.673 119.858 203.84 120.671 203.84C121.311 203.84 121.905 203.727 122.451 203.5C123.011 203.273 123.491 202.927 123.891 202.46L124.691 203.38C124.225 203.94 123.638 204.367 122.931 204.66C122.238 204.953 121.471 205.1 120.631 205.1ZM132.422 205.1C131.422 205.1 130.522 204.873 129.722 204.42C128.935 203.967 128.315 203.34 127.862 202.54C127.408 201.727 127.182 200.793 127.182 199.74C127.182 198.673 127.408 197.74 127.862 196.94C128.315 196.14 128.935 195.52 129.722 195.08C130.522 194.627 131.422 194.4 132.422 194.4C133.342 194.4 134.162 194.607 134.882 195.02C135.615 195.433 136.195 196.04 136.622 196.84C137.062 197.627 137.282 198.593 137.282 199.74C137.282 200.873 137.068 201.84 136.642 202.64C136.215 203.44 135.635 204.053 134.902 204.48C134.182 204.893 133.355 205.1 132.422 205.1ZM132.522 203.84C133.268 203.84 133.935 203.673 134.522 203.34C135.122 202.993 135.588 202.513 135.922 201.9C136.268 201.273 136.442 200.553 136.442 199.74C136.442 198.913 136.268 198.193 135.922 197.58C135.588 196.967 135.122 196.493 134.522 196.16C133.935 195.813 133.268 195.64 132.522 195.64C131.788 195.64 131.128 195.813 130.542 196.16C129.955 196.493 129.488 196.967 129.142 197.58C128.795 198.193 128.622 198.913 128.622 199.74C128.622 200.553 128.795 201.273 129.142 201.9C129.488 202.513 129.955 202.993 130.542 203.34C131.128 203.673 131.788 203.84 132.522 203.84ZM136.482 205V201.84L136.622 199.72L136.422 197.6V190.16H137.842V205H136.482Z" fill="#F2EEF4" fill-opacity="0.3"/>
<path d="M43.16 319.1C42.16 319.1 41.26 318.873 40.46 318.42C39.6733 317.967 39.0533 317.34 38.6 316.54C38.1467 315.727 37.92 314.793 37.92 313.74C37.92 312.673 38.1467 311.74 38.6 310.94C39.0533 310.14 39.6733 309.52 40.46 309.08C41.26 308.627 42.16 308.4 43.16 308.4C44.08 308.4 44.9 308.607 45.62 309.02C46.3533 309.433 46.9333 310.04 47.36 310.84C47.8 311.627 48.02 312.593 48.02 313.74C48.02 314.873 47.8067 315.84 47.38 316.64C46.9533 317.44 46.3733 318.053 45.64 318.48C44.92 318.893 44.0933 319.1 43.16 319.1ZM43.26 317.84C44.0067 317.84 44.6733 317.673 45.26 317.34C45.86 316.993 46.3267 316.513 46.66 315.9C47.0067 315.273 47.18 314.553 47.18 313.74C47.18 312.913 47.0067 312.193 46.66 311.58C46.3267 310.967 45.86 310.493 45.26 310.16C44.6733 309.813 44.0067 309.64 43.26 309.64C42.5267 309.64 41.8667 309.813 41.28 310.16C40.6933 310.493 40.2267 310.967 39.88 311.58C39.5333 312.193 39.36 312.913 39.36 313.74C39.36 314.553 39.5333 315.273 39.88 315.9C40.2267 316.513 40.6933 316.993 41.28 317.34C41.8667 317.673 42.5267 317.84 43.26 317.84ZM47.22 319V315.84L47.36 313.72L47.16 311.6V304.16H48.58V319H47.22ZM56.9947 319.1C55.9014 319.1 54.9414 318.873 54.1147 318.42C53.288 317.953 52.6414 317.32 52.1747 316.52C51.708 315.707 51.4747 314.78 51.4747 313.74C51.4747 312.7 51.6947 311.78 52.1347 310.98C52.588 310.18 53.2014 309.553 53.9747 309.1C54.7614 308.633 55.6414 308.4 56.6147 308.4C57.6014 308.4 58.4747 308.627 59.2347 309.08C60.008 309.52 60.6147 310.147 61.0547 310.96C61.4947 311.76 61.7147 312.687 61.7147 313.74C61.7147 313.807 61.708 313.88 61.6947 313.96C61.6947 314.027 61.6947 314.1 61.6947 314.18H52.5547V313.12H60.9347L60.3747 313.54C60.3747 312.78 60.208 312.107 59.8747 311.52C59.5547 310.92 59.1147 310.453 58.5547 310.12C57.9947 309.787 57.348 309.62 56.6147 309.62C55.8947 309.62 55.248 309.787 54.6747 310.12C54.1014 310.453 53.6547 310.92 53.3347 311.52C53.0147 312.12 52.8547 312.807 52.8547 313.58V313.8C52.8547 314.6 53.028 315.307 53.3747 315.92C53.7347 316.52 54.228 316.993 54.8547 317.34C55.4947 317.673 56.2214 317.84 57.0347 317.84C57.6747 317.84 58.268 317.727 58.8147 317.5C59.3747 317.273 59.8547 316.927 60.2547 316.46L61.0547 317.38C60.588 317.94 60.0014 318.367 59.2947 318.66C58.6014 318.953 57.8347 319.1 56.9947 319.1ZM70.025 319.1C69.1183 319.1 68.2983 318.893 67.565 318.48C66.8317 318.053 66.245 317.447 65.805 316.66C65.3783 315.86 65.165 314.887 65.165 313.74C65.165 312.593 65.3783 311.627 65.805 310.84C66.2317 310.04 66.8117 309.433 67.545 309.02C68.2783 308.607 69.105 308.4 70.025 308.4C71.025 308.4 71.9183 308.627 72.705 309.08C73.505 309.52 74.1317 310.147 74.585 310.96C75.0383 311.76 75.265 312.687 75.265 313.74C75.265 314.807 75.0383 315.74 74.585 316.54C74.1317 317.34 73.505 317.967 72.705 318.42C71.9183 318.873 71.025 319.1 70.025 319.1ZM64.605 322.88V308.5H65.965V311.66L65.825 313.76L66.025 315.88V322.88H64.605ZM69.925 317.84C70.6717 317.84 71.3383 317.673 71.925 317.34C72.5117 316.993 72.9783 316.513 73.325 315.9C73.6717 315.273 73.845 314.553 73.845 313.74C73.845 312.927 73.6717 312.213 73.325 311.6C72.9783 310.987 72.5117 310.507 71.925 310.16C71.3383 309.813 70.6717 309.64 69.925 309.64C69.1783 309.64 68.505 309.813 67.905 310.16C67.3183 310.507 66.8517 310.987 66.505 311.6C66.1717 312.213 66.005 312.927 66.005 313.74C66.005 314.553 66.1717 315.273 66.505 315.9C66.8517 316.513 67.3183 316.993 67.905 317.34C68.505 317.673 69.1783 317.84 69.925 317.84ZM78.1597 319V308.5H79.5197V311.36L79.3797 310.86C79.673 310.06 80.1664 309.453 80.8597 309.04C81.553 308.613 82.413 308.4 83.4397 308.4V309.78C83.3864 309.78 83.333 309.78 83.2797 309.78C83.2264 309.767 83.173 309.76 83.1197 309.76C82.013 309.76 81.1464 310.1 80.5197 310.78C79.893 311.447 79.5797 312.4 79.5797 313.64V319H78.1597ZM90.3931 319.1C89.2998 319.1 88.3398 318.873 87.5131 318.42C86.6865 317.953 86.0398 317.32 85.5731 316.52C85.1065 315.707 84.8731 314.78 84.8731 313.74C84.8731 312.7 85.0931 311.78 85.5331 310.98C85.9865 310.18 86.5998 309.553 87.3731 309.1C88.1598 308.633 89.0398 308.4 90.0131 308.4C90.9998 308.4 91.8731 308.627 92.6331 309.08C93.4065 309.52 94.0131 310.147 94.4531 310.96C94.8931 311.76 95.1131 312.687 95.1131 313.74C95.1131 313.807 95.1065 313.88 95.0931 313.96C95.0931 314.027 95.0931 314.1 95.0931 314.18H85.9531V313.12H94.3331L93.7731 313.54C93.7731 312.78 93.6065 312.107 93.2731 311.52C92.9531 310.92 92.5131 310.453 91.9531 310.12C91.3931 309.787 90.7465 309.62 90.0131 309.62C89.2931 309.62 88.6465 309.787 88.0731 310.12C87.4998 310.453 87.0531 310.92 86.7331 311.52C86.4131 312.12 86.2531 312.807 86.2531 313.58V313.8C86.2531 314.6 86.4265 315.307 86.7731 315.92C87.1331 316.52 87.6265 316.993 88.2531 317.34C88.8931 317.673 89.6198 317.84 90.4331 317.84C91.0731 317.84 91.6665 317.727 92.2131 317.5C92.7731 317.273 93.2531 316.927 93.6531 316.46L94.4531 317.38C93.9865 317.94 93.3998 318.367 92.6931 318.66C91.9998 318.953 91.2331 319.1 90.3931 319.1ZM100.823 319.1C99.9568 319.1 99.1368 318.98 98.3634 318.74C97.5901 318.487 96.9834 318.173 96.5434 317.8L97.1834 316.68C97.6101 317 98.1568 317.28 98.8234 317.52C99.4901 317.747 100.19 317.86 100.923 317.86C101.923 317.86 102.643 317.707 103.083 317.4C103.523 317.08 103.743 316.66 103.743 316.14C103.743 315.753 103.617 315.453 103.363 315.24C103.123 315.013 102.803 314.847 102.403 314.74C102.003 314.62 101.557 314.52 101.063 314.44C100.57 314.36 100.077 314.267 99.5834 314.16C99.1034 314.053 98.6634 313.9 98.2634 313.7C97.8634 313.487 97.5368 313.2 97.2834 312.84C97.0434 312.48 96.9234 312 96.9234 311.4C96.9234 310.827 97.0834 310.313 97.4034 309.86C97.7234 309.407 98.1901 309.053 98.8034 308.8C99.4301 308.533 100.19 308.4 101.083 308.4C101.763 308.4 102.443 308.493 103.123 308.68C103.803 308.853 104.363 309.087 104.803 309.38L104.183 310.52C103.717 310.2 103.217 309.973 102.683 309.84C102.15 309.693 101.617 309.62 101.083 309.62C100.137 309.62 99.4368 309.787 98.9834 310.12C98.5434 310.44 98.3234 310.853 98.3234 311.36C98.3234 311.76 98.4434 312.073 98.6834 312.3C98.9368 312.527 99.2634 312.707 99.6634 312.84C100.077 312.96 100.523 313.06 101.003 313.14C101.497 313.22 101.983 313.32 102.463 313.44C102.957 313.547 103.403 313.7 103.803 313.9C104.217 314.087 104.543 314.36 104.783 314.72C105.037 315.067 105.163 315.527 105.163 316.1C105.163 316.713 104.99 317.247 104.643 317.7C104.31 318.14 103.817 318.487 103.163 318.74C102.523 318.98 101.743 319.1 100.823 319.1ZM110.589 319.1C109.722 319.1 108.902 318.98 108.129 318.74C107.356 318.487 106.749 318.173 106.309 317.8L106.949 316.68C107.376 317 107.922 317.28 108.589 317.52C109.256 317.747 109.956 317.86 110.689 317.86C111.689 317.86 112.409 317.707 112.849 317.4C113.289 317.08 113.509 316.66 113.509 316.14C113.509 315.753 113.382 315.453 113.129 315.24C112.889 315.013 112.569 314.847 112.169 314.74C111.769 314.62 111.322 314.52 110.829 314.44C110.336 314.36 109.842 314.267 109.349 314.16C108.869 314.053 108.429 313.9 108.029 313.7C107.629 313.487 107.302 313.2 107.049 312.84C106.809 312.48 106.689 312 106.689 311.4C106.689 310.827 106.849 310.313 107.169 309.86C107.489 309.407 107.956 309.053 108.569 308.8C109.196 308.533 109.956 308.4 110.849 308.4C111.529 308.4 112.209 308.493 112.889 308.68C113.569 308.853 114.129 309.087 114.569 309.38L113.949 310.52C113.482 310.2 112.982 309.973 112.449 309.84C111.916 309.693 111.382 309.62 110.849 309.62C109.902 309.62 109.202 309.787 108.749 310.12C108.309 310.44 108.089 310.853 108.089 311.36C108.089 311.76 108.209 312.073 108.449 312.3C108.702 312.527 109.029 312.707 109.429 312.84C109.842 312.96 110.289 313.06 110.769 313.14C111.262 313.22 111.749 313.32 112.229 313.44C112.722 313.547 113.169 313.7 113.569 313.9C113.982 314.087 114.309 314.36 114.549 314.72C114.802 315.067 114.929 315.527 114.929 316.1C114.929 316.713 114.756 317.247 114.409 317.7C114.076 318.14 113.582 318.487 112.929 318.74C112.289 318.98 111.509 319.1 110.589 319.1ZM121.995 319.1C120.901 319.1 119.941 318.873 119.115 318.42C118.288 317.953 117.641 317.32 117.175 316.52C116.708 315.707 116.475 314.78 116.475 313.74C116.475 312.7 116.695 311.78 117.135 310.98C117.588 310.18 118.201 309.553 118.975 309.1C119.761 308.633 120.641 308.4 121.615 308.4C122.601 308.4 123.475 308.627 124.235 309.08C125.008 309.52 125.615 310.147 126.055 310.96C126.495 311.76 126.715 312.687 126.715 313.74C126.715 313.807 126.708 313.88 126.695 313.96C126.695 314.027 126.695 314.1 126.695 314.18H117.555V313.12H125.935L125.375 313.54C125.375 312.78 125.208 312.107 124.875 311.52C124.555 310.92 124.115 310.453 123.555 310.12C122.995 309.787 122.348 309.62 121.615 309.62C120.895 309.62 120.248 309.787 119.675 310.12C119.101 310.453 118.655 310.92 118.335 311.52C118.015 312.12 117.855 312.807 117.855 313.58V313.8C117.855 314.6 118.028 315.307 118.375 315.92C118.735 316.52 119.228 316.993 119.855 317.34C120.495 317.673 121.221 317.84 122.035 317.84C122.675 317.84 123.268 317.727 123.815 317.5C124.375 317.273 124.855 316.927 125.255 316.46L126.055 317.38C125.588 317.94 125.001 318.367 124.295 318.66C123.601 318.953 122.835 319.1 121.995 319.1ZM133.785 319.1C132.785 319.1 131.885 318.873 131.085 318.42C130.298 317.967 129.678 317.34 129.225 316.54C128.772 315.727 128.545 314.793 128.545 313.74C128.545 312.673 128.772 311.74 129.225 310.94C129.678 310.14 130.298 309.52 131.085 309.08C131.885 308.627 132.785 308.4 133.785 308.4C134.705 308.4 135.525 308.607 136.245 309.02C136.978 309.433 137.558 310.04 137.985 310.84C138.425 311.627 138.645 312.593 138.645 313.74C138.645 314.873 138.432 315.84 138.005 316.64C137.578 317.44 136.998 318.053 136.265 318.48C135.545 318.893 134.718 319.1 133.785 319.1ZM133.885 317.84C134.632 317.84 135.298 317.673 135.885 317.34C136.485 316.993 136.952 316.513 137.285 315.9C137.632 315.273 137.805 314.553 137.805 313.74C137.805 312.913 137.632 312.193 137.285 311.58C136.952 310.967 136.485 310.493 135.885 310.16C135.298 309.813 134.632 309.64 133.885 309.64C133.152 309.64 132.492 309.813 131.905 310.16C131.318 310.493 130.852 310.967 130.505 311.58C130.158 312.193 129.985 312.913 129.985 313.74C129.985 314.553 130.158 315.273 130.505 315.9C130.852 316.513 131.318 316.993 131.905 317.34C132.492 317.673 133.152 317.84 133.885 317.84ZM137.845 319V315.84L137.985 313.72L137.785 311.6V304.16H139.205V319H137.845Z" fill="#F2EEF4" fill-opacity="0.3"/>
<path d="M497.34 311.1C496.3 311.1 495.367 310.873 494.54 310.42C493.727 309.953 493.087 309.32 492.62 308.52C492.153 307.707 491.92 306.78 491.92 305.74C491.92 304.687 492.153 303.76 492.62 302.96C493.087 302.16 493.727 301.533 494.54 301.08C495.367 300.627 496.3 300.4 497.34 300.4C498.233 300.4 499.04 300.573 499.76 300.92C500.48 301.267 501.047 301.787 501.46 302.48L500.4 303.2C500.04 302.667 499.593 302.273 499.06 302.02C498.527 301.767 497.947 301.64 497.32 301.64C496.573 301.64 495.9 301.813 495.3 302.16C494.7 302.493 494.227 302.967 493.88 303.58C493.533 304.193 493.36 304.913 493.36 305.74C493.36 306.567 493.533 307.287 493.88 307.9C494.227 308.513 494.7 308.993 495.3 309.34C495.9 309.673 496.573 309.84 497.32 309.84C497.947 309.84 498.527 309.713 499.06 309.46C499.593 309.207 500.04 308.82 500.4 308.3L501.46 309.02C501.047 309.7 500.48 310.22 499.76 310.58C499.04 310.927 498.233 311.1 497.34 311.1ZM508.354 311.1C507.34 311.1 506.427 310.873 505.614 310.42C504.814 309.953 504.18 309.32 503.714 308.52C503.247 307.707 503.014 306.78 503.014 305.74C503.014 304.687 503.247 303.76 503.714 302.96C504.18 302.16 504.814 301.533 505.614 301.08C506.414 300.627 507.327 300.4 508.354 300.4C509.394 300.4 510.314 300.627 511.114 301.08C511.927 301.533 512.56 302.16 513.014 302.96C513.48 303.76 513.714 304.687 513.714 305.74C513.714 306.78 513.48 307.707 513.014 308.52C512.56 309.32 511.927 309.953 511.114 310.42C510.3 310.873 509.38 311.1 508.354 311.1ZM508.354 309.84C509.114 309.84 509.787 309.673 510.374 309.34C510.96 308.993 511.42 308.513 511.754 307.9C512.1 307.273 512.274 306.553 512.274 305.74C512.274 304.913 512.1 304.193 511.754 303.58C511.42 302.967 510.96 302.493 510.374 302.16C509.787 301.813 509.12 301.64 508.374 301.64C507.627 301.64 506.96 301.813 506.374 302.16C505.787 302.493 505.32 302.967 504.974 303.58C504.627 304.193 504.454 304.913 504.454 305.74C504.454 306.553 504.627 307.273 504.974 307.9C505.32 308.513 505.787 308.993 506.374 309.34C506.96 309.673 507.62 309.84 508.354 309.84ZM521.973 300.4C522.826 300.4 523.573 300.567 524.213 300.9C524.866 301.22 525.373 301.713 525.733 302.38C526.106 303.047 526.293 303.887 526.293 304.9V311H524.873V305.04C524.873 303.933 524.593 303.1 524.033 302.54C523.486 301.967 522.713 301.68 521.713 301.68C520.966 301.68 520.313 301.833 519.753 302.14C519.206 302.433 518.779 302.867 518.473 303.44C518.179 304 518.033 304.68 518.033 305.48V311H516.613V300.5H517.973V303.38L517.753 302.84C518.086 302.08 518.619 301.487 519.353 301.06C520.086 300.62 520.959 300.4 521.973 300.4ZM533.448 311.1C532.462 311.1 531.702 310.833 531.168 310.3C530.635 309.767 530.368 309.013 530.368 308.04V298.18H531.788V307.96C531.788 308.573 531.942 309.047 532.248 309.38C532.568 309.713 533.022 309.88 533.608 309.88C534.235 309.88 534.755 309.7 535.168 309.34L535.668 310.36C535.388 310.613 535.048 310.8 534.648 310.92C534.262 311.04 533.862 311.1 533.448 311.1ZM528.488 301.68V300.5H534.988V301.68H528.488ZM542.342 311.1C541.249 311.1 540.289 310.873 539.462 310.42C538.636 309.953 537.989 309.32 537.522 308.52C537.056 307.707 536.822 306.78 536.822 305.74C536.822 304.7 537.042 303.78 537.482 302.98C537.936 302.18 538.549 301.553 539.322 301.1C540.109 300.633 540.989 300.4 541.962 300.4C542.949 300.4 543.822 300.627 544.582 301.08C545.356 301.52 545.962 302.147 546.402 302.96C546.842 303.76 547.062 304.687 547.062 305.74C547.062 305.807 547.056 305.88 547.042 305.96C547.042 306.027 547.042 306.1 547.042 306.18H537.902V305.12H546.282L545.722 305.54C545.722 304.78 545.556 304.107 545.222 303.52C544.902 302.92 544.462 302.453 543.902 302.12C543.342 301.787 542.696 301.62 541.962 301.62C541.242 301.62 540.596 301.787 540.022 302.12C539.449 302.453 539.002 302.92 538.682 303.52C538.362 304.12 538.202 304.807 538.202 305.58V305.8C538.202 306.6 538.376 307.307 538.722 307.92C539.082 308.52 539.576 308.993 540.202 309.34C540.842 309.673 541.569 309.84 542.382 309.84C543.022 309.84 543.616 309.727 544.162 309.5C544.722 309.273 545.202 308.927 545.602 308.46L546.402 309.38C545.936 309.94 545.349 310.367 544.642 310.66C543.949 310.953 543.182 311.1 542.342 311.1ZM555.313 300.4C556.166 300.4 556.913 300.567 557.553 300.9C558.206 301.22 558.713 301.713 559.073 302.38C559.446 303.047 559.633 303.887 559.633 304.9V311H558.213V305.04C558.213 303.933 557.933 303.1 557.373 302.54C556.826 301.967 556.053 301.68 555.053 301.68C554.306 301.68 553.653 301.833 553.093 302.14C552.546 302.433 552.119 302.867 551.813 303.44C551.519 304 551.373 304.68 551.373 305.48V311H549.953V300.5H551.313V303.38L551.093 302.84C551.426 302.08 551.959 301.487 552.693 301.06C553.426 300.62 554.299 300.4 555.313 300.4ZM566.788 311.1C565.802 311.1 565.042 310.833 564.508 310.3C563.975 309.767 563.708 309.013 563.708 308.04V298.18H565.128V307.96C565.128 308.573 565.282 309.047 565.588 309.38C565.908 309.713 566.362 309.88 566.948 309.88C567.575 309.88 568.095 309.7 568.508 309.34L569.008 310.36C568.728 310.613 568.388 310.8 567.988 310.92C567.602 311.04 567.202 311.1 566.788 311.1ZM561.828 301.68V300.5H568.328V301.68H561.828Z" fill="#F2EEF4" fill-opacity="0.3"/>
<path d="M452.98 408V397.5H454.34V400.36L454.2 399.86C454.493 399.06 454.987 398.453 455.68 398.04C456.373 397.613 457.233 397.4 458.26 397.4V398.78C458.207 398.78 458.153 398.78 458.1 398.78C458.047 398.767 457.993 398.76 457.94 398.76C456.833 398.76 455.967 399.1 455.34 399.78C454.713 400.447 454.4 401.4 454.4 402.64V408H452.98ZM465.213 408.1C464.12 408.1 463.16 407.873 462.333 407.42C461.507 406.953 460.86 406.32 460.393 405.52C459.927 404.707 459.693 403.78 459.693 402.74C459.693 401.7 459.913 400.78 460.353 399.98C460.807 399.18 461.42 398.553 462.193 398.1C462.98 397.633 463.86 397.4 464.833 397.4C465.82 397.4 466.693 397.627 467.453 398.08C468.227 398.52 468.833 399.147 469.273 399.96C469.713 400.76 469.933 401.687 469.933 402.74C469.933 402.807 469.927 402.88 469.913 402.96C469.913 403.027 469.913 403.1 469.913 403.18H460.773V402.12H469.153L468.593 402.54C468.593 401.78 468.427 401.107 468.093 400.52C467.773 399.92 467.333 399.453 466.773 399.12C466.213 398.787 465.567 398.62 464.833 398.62C464.113 398.62 463.467 398.787 462.893 399.12C462.32 399.453 461.873 399.92 461.553 400.52C461.233 401.12 461.073 401.807 461.073 402.58V402.8C461.073 403.6 461.247 404.307 461.593 404.92C461.953 405.52 462.447 405.993 463.073 406.34C463.713 406.673 464.44 406.84 465.253 406.84C465.893 406.84 466.487 406.727 467.033 406.5C467.593 406.273 468.073 405.927 468.473 405.46L469.273 406.38C468.807 406.94 468.22 407.367 467.513 407.66C466.82 407.953 466.053 408.1 465.213 408.1ZM472.824 408V393.16H474.244V408H472.824ZM484.775 408V405.68L484.715 405.3V401.42C484.715 400.527 484.462 399.84 483.955 399.36C483.462 398.88 482.722 398.64 481.735 398.64C481.055 398.64 480.408 398.753 479.795 398.98C479.182 399.207 478.662 399.507 478.235 399.88L477.595 398.82C478.128 398.367 478.768 398.02 479.515 397.78C480.262 397.527 481.048 397.4 481.875 397.4C483.235 397.4 484.282 397.74 485.015 398.42C485.762 399.087 486.135 400.107 486.135 401.48V408H484.775ZM481.155 408.1C480.368 408.1 479.682 407.973 479.095 407.72C478.522 407.453 478.082 407.093 477.775 406.64C477.468 406.173 477.315 405.64 477.315 405.04C477.315 404.493 477.442 404 477.695 403.56C477.962 403.107 478.388 402.747 478.975 402.48C479.575 402.2 480.375 402.06 481.375 402.06H484.995V403.12H481.415C480.402 403.12 479.695 403.3 479.295 403.66C478.908 404.02 478.715 404.467 478.715 405C478.715 405.6 478.948 406.08 479.415 406.44C479.882 406.8 480.535 406.98 481.375 406.98C482.175 406.98 482.862 406.8 483.435 406.44C484.022 406.067 484.448 405.533 484.715 404.84L485.035 405.82C484.768 406.513 484.302 407.067 483.635 407.48C482.982 407.893 482.155 408.1 481.155 408.1ZM488.392 408L492.832 402.24L492.812 402.94L488.592 397.5H490.192L493.652 402L493.052 401.98L496.512 397.5H498.072L493.812 403L493.832 402.24L498.312 408H496.692L493.032 403.2L493.592 403.28L489.992 408H488.392ZM504.764 408.1C503.671 408.1 502.711 407.873 501.884 407.42C501.058 406.953 500.411 406.32 499.944 405.52C499.478 404.707 499.244 403.78 499.244 402.74C499.244 401.7 499.464 400.78 499.904 399.98C500.358 399.18 500.971 398.553 501.744 398.1C502.531 397.633 503.411 397.4 504.384 397.4C505.371 397.4 506.244 397.627 507.004 398.08C507.778 398.52 508.384 399.147 508.824 399.96C509.264 400.76 509.484 401.687 509.484 402.74C509.484 402.807 509.478 402.88 509.464 402.96C509.464 403.027 509.464 403.1 509.464 403.18H500.324V402.12H508.704L508.144 402.54C508.144 401.78 507.978 401.107 507.644 400.52C507.324 399.92 506.884 399.453 506.324 399.12C505.764 398.787 505.118 398.62 504.384 398.62C503.664 398.62 503.018 398.787 502.444 399.12C501.871 399.453 501.424 399.92 501.104 400.52C500.784 401.12 500.624 401.807 500.624 402.58V402.8C500.624 403.6 500.798 404.307 501.144 404.92C501.504 405.52 501.998 405.993 502.624 406.34C503.264 406.673 503.991 406.84 504.804 406.84C505.444 406.84 506.038 406.727 506.584 406.5C507.144 406.273 507.624 405.927 508.024 405.46L508.824 406.38C508.358 406.94 507.771 407.367 507.064 407.66C506.371 407.953 505.604 408.1 504.764 408.1ZM515.195 408.1C514.328 408.1 513.508 407.98 512.735 407.74C511.961 407.487 511.355 407.173 510.915 406.8L511.555 405.68C511.981 406 512.528 406.28 513.195 406.52C513.861 406.747 514.561 406.86 515.295 406.86C516.295 406.86 517.015 406.707 517.455 406.4C517.895 406.08 518.115 405.66 518.115 405.14C518.115 404.753 517.988 404.453 517.735 404.24C517.495 404.013 517.175 403.847 516.775 403.74C516.375 403.62 515.928 403.52 515.435 403.44C514.941 403.36 514.448 403.267 513.955 403.16C513.475 403.053 513.035 402.9 512.635 402.7C512.235 402.487 511.908 402.2 511.655 401.84C511.415 401.48 511.295 401 511.295 400.4C511.295 399.827 511.455 399.313 511.775 398.86C512.095 398.407 512.561 398.053 513.175 397.8C513.801 397.533 514.561 397.4 515.455 397.4C516.135 397.4 516.815 397.493 517.495 397.68C518.175 397.853 518.735 398.087 519.175 398.38L518.555 399.52C518.088 399.2 517.588 398.973 517.055 398.84C516.521 398.693 515.988 398.62 515.455 398.62C514.508 398.62 513.808 398.787 513.355 399.12C512.915 399.44 512.695 399.853 512.695 400.36C512.695 400.76 512.815 401.073 513.055 401.3C513.308 401.527 513.635 401.707 514.035 401.84C514.448 401.96 514.895 402.06 515.375 402.14C515.868 402.22 516.355 402.32 516.835 402.44C517.328 402.547 517.775 402.7 518.175 402.9C518.588 403.087 518.915 403.36 519.155 403.72C519.408 404.067 519.535 404.527 519.535 405.1C519.535 405.713 519.361 406.247 519.015 406.7C518.681 407.14 518.188 407.487 517.535 407.74C516.895 407.98 516.115 408.1 515.195 408.1Z" fill="#F2EEF4" fill-opacity="0.3"/>
<path d="M392.34 474.1C391.3 474.1 390.367 473.873 389.54 473.42C388.727 472.953 388.087 472.32 387.62 471.52C387.153 470.707 386.92 469.78 386.92 468.74C386.92 467.687 387.153 466.76 387.62 465.96C388.087 465.16 388.727 464.533 389.54 464.08C390.367 463.627 391.3 463.4 392.34 463.4C393.233 463.4 394.04 463.573 394.76 463.92C395.48 464.267 396.047 464.787 396.46 465.48L395.4 466.2C395.04 465.667 394.593 465.273 394.06 465.02C393.527 464.767 392.947 464.64 392.32 464.64C391.573 464.64 390.9 464.813 390.3 465.16C389.7 465.493 389.227 465.967 388.88 466.58C388.533 467.193 388.36 467.913 388.36 468.74C388.36 469.567 388.533 470.287 388.88 470.9C389.227 471.513 389.7 471.993 390.3 472.34C390.9 472.673 391.573 472.84 392.32 472.84C392.947 472.84 393.527 472.713 394.06 472.46C394.593 472.207 395.04 471.82 395.4 471.3L396.46 472.02C396.047 472.7 395.48 473.22 394.76 473.58C394.04 473.927 393.233 474.1 392.34 474.1ZM405.83 474V471.68L405.77 471.3V467.42C405.77 466.527 405.516 465.84 405.01 465.36C404.516 464.88 403.776 464.64 402.79 464.64C402.11 464.64 401.463 464.753 400.85 464.98C400.236 465.207 399.716 465.507 399.29 465.88L398.65 464.82C399.183 464.367 399.823 464.02 400.57 463.78C401.316 463.527 402.103 463.4 402.93 463.4C404.29 463.4 405.336 463.74 406.07 464.42C406.816 465.087 407.19 466.107 407.19 467.48V474H405.83ZM402.21 474.1C401.423 474.1 400.736 473.973 400.15 473.72C399.576 473.453 399.136 473.093 398.83 472.64C398.523 472.173 398.37 471.64 398.37 471.04C398.37 470.493 398.496 470 398.75 469.56C399.016 469.107 399.443 468.747 400.03 468.48C400.63 468.2 401.43 468.06 402.43 468.06H406.05V469.12H402.47C401.456 469.12 400.75 469.3 400.35 469.66C399.963 470.02 399.77 470.467 399.77 471C399.77 471.6 400.003 472.08 400.47 472.44C400.936 472.8 401.59 472.98 402.43 472.98C403.23 472.98 403.916 472.8 404.49 472.44C405.076 472.067 405.503 471.533 405.77 470.84L406.09 471.82C405.823 472.513 405.356 473.067 404.69 473.48C404.036 473.893 403.21 474.1 402.21 474.1ZM411.046 474V459.16H412.466V474H411.046ZM429.538 463.4C430.391 463.4 431.131 463.567 431.758 463.9C432.398 464.22 432.891 464.713 433.238 465.38C433.598 466.047 433.778 466.887 433.778 467.9V474H432.358V468.04C432.358 466.933 432.091 466.1 431.558 465.54C431.038 464.967 430.298 464.68 429.338 464.68C428.618 464.68 427.991 464.833 427.458 465.14C426.938 465.433 426.531 465.867 426.238 466.44C425.958 467 425.818 467.68 425.818 468.48V474H424.398V468.04C424.398 466.933 424.131 466.1 423.598 465.54C423.064 464.967 422.318 464.68 421.358 464.68C420.651 464.68 420.031 464.833 419.498 465.14C418.964 465.433 418.551 465.867 418.258 466.44C417.978 467 417.838 467.68 417.838 468.48V474H416.418V463.5H417.778V466.34L417.558 465.84C417.878 465.08 418.391 464.487 419.098 464.06C419.818 463.62 420.664 463.4 421.638 463.4C422.664 463.4 423.538 463.66 424.258 464.18C424.978 464.687 425.444 465.453 425.658 466.48L425.098 466.26C425.404 465.407 425.944 464.72 426.718 464.2C427.504 463.667 428.444 463.4 429.538 463.4Z" fill="#F2EEF4" fill-opacity="0.3"/>
<path d="M94.4 406.1C93.48 406.1 92.6533 405.893 91.92 405.48C91.1867 405.053 90.6067 404.44 90.18 403.64C89.7533 402.84 89.54 401.873 89.54 400.74C89.54 399.593 89.7533 398.627 90.18 397.84C90.62 397.04 91.2067 396.433 91.94 396.02C92.6733 395.607 93.4933 395.4 94.4 395.4C95.4 395.4 96.2933 395.627 97.08 396.08C97.88 396.52 98.5067 397.14 98.96 397.94C99.4133 398.74 99.64 399.673 99.64 400.74C99.64 401.793 99.4133 402.727 98.96 403.54C98.5067 404.34 97.88 404.967 97.08 405.42C96.2933 405.873 95.4 406.1 94.4 406.1ZM88.98 406V391.16H90.4V398.6L90.2 400.72L90.34 402.84V406H88.98ZM94.3 404.84C95.0467 404.84 95.7133 404.673 96.3 404.34C96.8867 403.993 97.3533 403.513 97.7 402.9C98.0467 402.273 98.22 401.553 98.22 400.74C98.22 399.913 98.0467 399.193 97.7 398.58C97.3533 397.967 96.8867 397.493 96.3 397.16C95.7133 396.813 95.0467 396.64 94.3 396.64C93.5533 396.64 92.88 396.813 92.28 397.16C91.6933 397.493 91.2267 397.967 90.88 398.58C90.5467 399.193 90.38 399.913 90.38 400.74C90.38 401.553 90.5467 402.273 90.88 402.9C91.2267 403.513 91.6933 403.993 92.28 404.34C92.88 404.673 93.5533 404.84 94.3 404.84ZM106.815 406.1C105.801 406.1 104.888 405.873 104.075 405.42C103.275 404.953 102.641 404.32 102.175 403.52C101.708 402.707 101.475 401.78 101.475 400.74C101.475 399.687 101.708 398.76 102.175 397.96C102.641 397.16 103.275 396.533 104.075 396.08C104.875 395.627 105.788 395.4 106.815 395.4C107.855 395.4 108.775 395.627 109.575 396.08C110.388 396.533 111.021 397.16 111.475 397.96C111.941 398.76 112.175 399.687 112.175 400.74C112.175 401.78 111.941 402.707 111.475 403.52C111.021 404.32 110.388 404.953 109.575 405.42C108.761 405.873 107.841 406.1 106.815 406.1ZM106.815 404.84C107.575 404.84 108.248 404.673 108.835 404.34C109.421 403.993 109.881 403.513 110.215 402.9C110.561 402.273 110.735 401.553 110.735 400.74C110.735 399.913 110.561 399.193 110.215 398.58C109.881 397.967 109.421 397.493 108.835 397.16C108.248 396.813 107.581 396.64 106.835 396.64C106.088 396.64 105.421 396.813 104.835 397.16C104.248 397.493 103.781 397.967 103.435 398.58C103.088 399.193 102.915 399.913 102.915 400.74C102.915 401.553 103.088 402.273 103.435 402.9C103.781 403.513 104.248 403.993 104.835 404.34C105.421 404.673 106.081 404.84 106.815 404.84ZM115.074 406V395.5H116.434V398.36L116.294 397.86C116.587 397.06 117.08 396.453 117.774 396.04C118.467 395.613 119.327 395.4 120.354 395.4V396.78C120.3 396.78 120.247 396.78 120.194 396.78C120.14 396.767 120.087 396.76 120.034 396.76C118.927 396.76 118.06 397.1 117.434 397.78C116.807 398.447 116.494 399.4 116.494 400.64V406H115.074ZM127.307 406.1C126.214 406.1 125.254 405.873 124.427 405.42C123.601 404.953 122.954 404.32 122.487 403.52C122.021 402.707 121.787 401.78 121.787 400.74C121.787 399.7 122.007 398.78 122.447 397.98C122.901 397.18 123.514 396.553 124.287 396.1C125.074 395.633 125.954 395.4 126.927 395.4C127.914 395.4 128.787 395.627 129.547 396.08C130.321 396.52 130.927 397.147 131.367 397.96C131.807 398.76 132.027 399.687 132.027 400.74C132.027 400.807 132.021 400.88 132.007 400.96C132.007 401.027 132.007 401.1 132.007 401.18H122.867V400.12H131.247L130.687 400.54C130.687 399.78 130.521 399.107 130.187 398.52C129.867 397.92 129.427 397.453 128.867 397.12C128.307 396.787 127.661 396.62 126.927 396.62C126.207 396.62 125.561 396.787 124.987 397.12C124.414 397.453 123.967 397.92 123.647 398.52C123.327 399.12 123.167 399.807 123.167 400.58V400.8C123.167 401.6 123.341 402.307 123.687 402.92C124.047 403.52 124.541 403.993 125.167 404.34C125.807 404.673 126.534 404.84 127.347 404.84C127.987 404.84 128.581 404.727 129.127 404.5C129.687 404.273 130.167 403.927 130.567 403.46L131.367 404.38C130.901 404.94 130.314 405.367 129.607 405.66C128.914 405.953 128.147 406.1 127.307 406.1ZM139.098 406.1C138.098 406.1 137.198 405.873 136.398 405.42C135.611 404.967 134.991 404.34 134.538 403.54C134.084 402.727 133.858 401.793 133.858 400.74C133.858 399.673 134.084 398.74 134.538 397.94C134.991 397.14 135.611 396.52 136.398 396.08C137.198 395.627 138.098 395.4 139.098 395.4C140.018 395.4 140.838 395.607 141.558 396.02C142.291 396.433 142.871 397.04 143.298 397.84C143.738 398.627 143.957 399.593 143.957 400.74C143.957 401.873 143.744 402.84 143.318 403.64C142.891 404.44 142.311 405.053 141.578 405.48C140.858 405.893 140.031 406.1 139.098 406.1ZM139.198 404.84C139.944 404.84 140.611 404.673 141.198 404.34C141.798 403.993 142.264 403.513 142.598 402.9C142.944 402.273 143.118 401.553 143.118 400.74C143.118 399.913 142.944 399.193 142.598 398.58C142.264 397.967 141.798 397.493 141.198 397.16C140.611 396.813 139.944 396.64 139.198 396.64C138.464 396.64 137.804 396.813 137.218 397.16C136.631 397.493 136.164 397.967 135.818 398.58C135.471 399.193 135.298 399.913 135.298 400.74C135.298 401.553 135.471 402.273 135.818 402.9C136.164 403.513 136.631 403.993 137.218 404.34C137.804 404.673 138.464 404.84 139.198 404.84ZM143.158 406V402.84L143.298 400.72L143.098 398.6V391.16H144.518V406H143.158Z" fill="#F2EEF4" fill-opacity="0.3"/>
<path d="M153.8 473.1C152.933 473.1 152.113 472.98 151.34 472.74C150.567 472.487 149.96 472.173 149.52 471.8L150.16 470.68C150.587 471 151.133 471.28 151.8 471.52C152.467 471.747 153.167 471.86 153.9 471.86C154.9 471.86 155.62 471.707 156.06 471.4C156.5 471.08 156.72 470.66 156.72 470.14C156.72 469.753 156.593 469.453 156.34 469.24C156.1 469.013 155.78 468.847 155.38 468.74C154.98 468.62 154.533 468.52 154.04 468.44C153.547 468.36 153.053 468.267 152.56 468.16C152.08 468.053 151.64 467.9 151.24 467.7C150.84 467.487 150.513 467.2 150.26 466.84C150.02 466.48 149.9 466 149.9 465.4C149.9 464.827 150.06 464.313 150.38 463.86C150.7 463.407 151.167 463.053 151.78 462.8C152.407 462.533 153.167 462.4 154.06 462.4C154.74 462.4 155.42 462.493 156.1 462.68C156.78 462.853 157.34 463.087 157.78 463.38L157.16 464.52C156.693 464.2 156.193 463.973 155.66 463.84C155.127 463.693 154.593 463.62 154.06 463.62C153.113 463.62 152.413 463.787 151.96 464.12C151.52 464.44 151.3 464.853 151.3 465.36C151.3 465.76 151.42 466.073 151.66 466.3C151.913 466.527 152.24 466.707 152.64 466.84C153.053 466.96 153.5 467.06 153.98 467.14C154.473 467.22 154.96 467.32 155.44 467.44C155.933 467.547 156.38 467.7 156.78 467.9C157.193 468.087 157.52 468.36 157.76 468.72C158.013 469.067 158.14 469.527 158.14 470.1C158.14 470.713 157.967 471.247 157.62 471.7C157.287 472.14 156.793 472.487 156.14 472.74C155.5 472.98 154.72 473.1 153.8 473.1ZM160.746 473V458.16H162.166V473H160.746ZM170.577 473.1C169.483 473.1 168.523 472.873 167.697 472.42C166.87 471.953 166.223 471.32 165.757 470.52C165.29 469.707 165.057 468.78 165.057 467.74C165.057 466.7 165.277 465.78 165.717 464.98C166.17 464.18 166.783 463.553 167.557 463.1C168.343 462.633 169.223 462.4 170.197 462.4C171.183 462.4 172.057 462.627 172.817 463.08C173.59 463.52 174.197 464.147 174.637 464.96C175.077 465.76 175.297 466.687 175.297 467.74C175.297 467.807 175.29 467.88 175.277 467.96C175.277 468.027 175.277 468.1 175.277 468.18H166.137V467.12H174.517L173.957 467.54C173.957 466.78 173.79 466.107 173.457 465.52C173.137 464.92 172.697 464.453 172.137 464.12C171.577 463.787 170.93 463.62 170.197 463.62C169.477 463.62 168.83 463.787 168.257 464.12C167.683 464.453 167.237 464.92 166.917 465.52C166.597 466.12 166.437 466.807 166.437 467.58V467.8C166.437 468.6 166.61 469.307 166.957 469.92C167.317 470.52 167.81 470.993 168.437 471.34C169.077 471.673 169.803 471.84 170.617 471.84C171.257 471.84 171.85 471.727 172.397 471.5C172.957 471.273 173.437 470.927 173.837 470.46L174.637 471.38C174.17 471.94 173.583 472.367 172.877 472.66C172.183 472.953 171.417 473.1 170.577 473.1ZM182.647 473.1C181.554 473.1 180.594 472.873 179.767 472.42C178.94 471.953 178.294 471.32 177.827 470.52C177.36 469.707 177.127 468.78 177.127 467.74C177.127 466.7 177.347 465.78 177.787 464.98C178.24 464.18 178.854 463.553 179.627 463.1C180.414 462.633 181.294 462.4 182.267 462.4C183.254 462.4 184.127 462.627 184.887 463.08C185.66 463.52 186.267 464.147 186.707 464.96C187.147 465.76 187.367 466.687 187.367 467.74C187.367 467.807 187.36 467.88 187.347 467.96C187.347 468.027 187.347 468.1 187.347 468.18H178.207V467.12H186.587L186.027 467.54C186.027 466.78 185.86 466.107 185.527 465.52C185.207 464.92 184.767 464.453 184.207 464.12C183.647 463.787 183 463.62 182.267 463.62C181.547 463.62 180.9 463.787 180.327 464.12C179.754 464.453 179.307 464.92 178.987 465.52C178.667 466.12 178.507 466.807 178.507 467.58V467.8C178.507 468.6 178.68 469.307 179.027 469.92C179.387 470.52 179.88 470.993 180.507 471.34C181.147 471.673 181.874 471.84 182.687 471.84C183.327 471.84 183.92 471.727 184.467 471.5C185.027 471.273 185.507 470.927 185.907 470.46L186.707 471.38C186.24 471.94 185.654 472.367 184.947 472.66C184.254 472.953 183.487 473.1 182.647 473.1ZM195.677 473.1C194.771 473.1 193.951 472.893 193.217 472.48C192.484 472.053 191.897 471.447 191.457 470.66C191.031 469.86 190.817 468.887 190.817 467.74C190.817 466.593 191.031 465.627 191.457 464.84C191.884 464.04 192.464 463.433 193.197 463.02C193.931 462.607 194.757 462.4 195.677 462.4C196.677 462.4 197.571 462.627 198.357 463.08C199.157 463.52 199.784 464.147 200.237 464.96C200.691 465.76 200.917 466.687 200.917 467.74C200.917 468.807 200.691 469.74 200.237 470.54C199.784 471.34 199.157 471.967 198.357 472.42C197.571 472.873 196.677 473.1 195.677 473.1ZM190.257 476.88V462.5H191.617V465.66L191.477 467.76L191.677 469.88V476.88H190.257ZM195.577 471.84C196.324 471.84 196.991 471.673 197.577 471.34C198.164 470.993 198.631 470.513 198.977 469.9C199.324 469.273 199.497 468.553 199.497 467.74C199.497 466.927 199.324 466.213 198.977 465.6C198.631 464.987 198.164 464.507 197.577 464.16C196.991 463.813 196.324 463.64 195.577 463.64C194.831 463.64 194.157 463.813 193.557 464.16C192.971 464.507 192.504 464.987 192.157 465.6C191.824 466.213 191.657 466.927 191.657 467.74C191.657 468.553 191.824 469.273 192.157 469.9C192.504 470.513 192.971 470.993 193.557 471.34C194.157 471.673 194.831 471.84 195.577 471.84ZM203.599 476.98C203.106 476.98 202.632 476.9 202.179 476.74C201.739 476.58 201.359 476.34 201.039 476.02L201.699 474.96C201.966 475.213 202.252 475.407 202.559 475.54C202.879 475.687 203.232 475.76 203.619 475.76C204.086 475.76 204.486 475.627 204.819 475.36C205.166 475.107 205.492 474.653 205.799 474L206.479 472.46L206.639 472.24L210.959 462.5H212.359L207.099 474.26C206.806 474.94 206.479 475.48 206.119 475.88C205.772 476.28 205.392 476.56 204.979 476.72C204.566 476.893 204.106 476.98 203.599 476.98ZM206.399 473.3L201.559 462.5H203.039L207.319 472.14L206.399 473.3Z" fill="#F2EEF4" fill-opacity="0.3"/>
<path d="M295.854 47.6464C295.658 47.4512 295.342 47.4512 295.146 47.6464L291.964 50.8284C291.769 51.0237 291.769 51.3403 291.964 51.5355C292.16 51.7308 292.476 51.7308 292.672 51.5355L295.5 48.7071L298.328 51.5355C298.524 51.7308 298.84 51.7308 299.036 51.5355C299.231 51.3403 299.231 51.0237 299.036 50.8284L295.854 47.6464ZM295.146 466.354C295.342 466.549 295.658 466.549 295.854 466.354L299.036 463.172C299.231 462.976 299.231 462.66 299.036 462.464C298.84 462.269 298.524 462.269 298.328 462.464L295.5 465.293L292.672 462.464C292.476 462.269 292.16 462.269 291.964 462.464C291.769 462.66 291.769 462.976 291.964 463.172L295.146 466.354ZM295 48L295 466L296 466L296 48L295 48Z" fill="white"/>
<path d="M504.354 257.854C504.549 257.658 504.549 257.342 504.354 257.146L501.172 253.964C500.976 253.769 500.66 253.769 500.464 253.964C500.269 254.16 500.269 254.476 500.464 254.672L503.293 257.5L500.464 260.328C500.269 260.524 500.269 260.84 500.464 261.036C500.66 261.231 500.976 261.231 501.172 261.036L504.354 257.854ZM85.6465 257.146C85.4512 257.342 85.4512 257.658 85.6465 257.854L88.8284 261.036C89.0237 261.231 89.3403 261.231 89.5355 261.036C89.7308 260.84 89.7308 260.524 89.5355 260.328L86.7071 257.5L89.5355 254.672C89.7308 254.476 89.7308 254.16 89.5355 253.964C89.3403 253.769 89.0237 253.769 88.8284 253.964L85.6465 257.146ZM504 257L86 257V258L504 258V257Z" fill="white"/>
</svg>
